<?xml version="1.0" encoding="utf-8"?>
<!-- Generator: Adobe Illustrator 14.0.0, SVG Export Plug-In . SVG Version: 6.00 Build 43363)  -->
<!DOCTYPE svg PUBLIC "-//W3C//DTD SVG 1.1//EN" "http://www.w3.org/Graphics/SVG/1.1/DTD/svg11.dtd">
<svg version="1.1" id="Layer_1" xmlns="http://www.w3.org/2000/svg" xmlns:xlink="http://www.w3.org/1999/xlink" x="0px" y="0px"
	 width="100px" height="112px" viewBox="0 0 100 112" enable-background="new 0 0 100 112" xml:space="preserve">
<g>
	
		<linearGradient id="SVGID_1_" gradientUnits="userSpaceOnUse" x1="1853.9316" y1="3576.6543" x2="1946.9316" y2="3576.6543" gradientTransform="matrix(1 0 0 1 -1852.6016 -3525.9023)">
		<stop  offset="0" style="stop-color:#6E5B1E"/>
		<stop  offset="0.4242" style="stop-color:#EBDD86"/>
		<stop  offset="0.6061" style="stop-color:#EBDD86"/>
		<stop  offset="1" style="stop-color:#6E5B1E"/>
	</linearGradient>
	<path fill="url(#SVGID_1_)" stroke="#9B8207" d="M47.829,4.253c25.683,0,46.501,20.814,46.501,46.499
		c0,25.684-20.818,46.5-46.501,46.5c-25.684,0-46.499-20.816-46.499-46.5C1.33,25.068,22.145,4.253,47.829,4.253z"/>
	
		<linearGradient id="SVGID_2_" gradientUnits="userSpaceOnUse" x1="1860.9316" y1="3576.6543" x2="1939.9316" y2="3576.6543" gradientTransform="matrix(1 0 0 1 -1852.6016 -3525.9023)">
		<stop  offset="0.0013" style="stop-color:#0A0A0A"/>
		<stop  offset="0.4909" style="stop-color:#1E2423"/>
		<stop  offset="1" style="stop-color:#0D0D0D"/>
	</linearGradient>
	<path fill="url(#SVGID_2_)" stroke="#B7B7B7" stroke-width="0.5" d="M47.829,11.253c21.813,0,39.501,17.684,39.501,39.499
		c0,21.813-17.688,39.5-39.501,39.5c-21.815,0-39.499-17.688-39.499-39.5C8.33,28.937,26.014,11.253,47.829,11.253z"/>
</g>
<g>
	<g id="Layer_3_copy_3">
		<path fill="none" stroke="#FFFFFF" stroke-width="0.5" d="M28,17.134c0.333,0.577,0.667,1.155,1,1.732"/>
	</g>
	<g id="Layer_3_copy_11">
		<path fill="none" stroke="#FFFFFF" stroke-width="0.5" d="M15.566,32.5c-0.577-0.334-1.155-0.667-1.732-1"/>
	</g>
	<g id="Layer_3_copy_10">
		<path fill="none" stroke="#F9F9F9" stroke-width="0.5" d="M10.8,50.753c-0.667-0.001-1.334,0-2,0"/>
	</g>
	<g id="Layer_3_copy_8">
		<path fill="none" stroke="#FFFFFF" stroke-width="0.5" d="M16.27,70c-0.577,0.333-1.155,0.667-1.732,1"/>
	</g>
	<g id="Layer_3_copy_9">
		<path fill="none" stroke="#FFFFFF" stroke-width="0.5" d="M30,83.232c-0.333,0.578-0.667,1.156-1,1.729"/>
	</g>
	<g id="Layer_3_copy">
		<path fill="none" stroke="#FFFFFF" stroke-width="0.5" d="M47.83,87.7c0,0.665,0,1.334,0,2"/>
	</g>
	<g id="Layer_3_copy_7">
		<path fill="none" stroke="#EFEFEF" stroke-width="0.5" d="M68,84.066c-0.333-0.58-0.667-1.157-1-1.732"/>
	</g>
	<g id="Layer_3_copy_6">
		<path fill="none" stroke="#FFFFFF" stroke-width="0.5" d="M81.506,70.283c-0.578-0.336-1.156-0.668-1.732-1"/>
	</g>
	<g id="Layer_2_1_">
		<g>
			
				<linearGradient id="SVGID_3_" gradientUnits="userSpaceOnUse" x1="91.5713" y1="-71.8003" x2="91.7822" y2="-71.8003" gradientTransform="matrix(1 0 0 -1 -47.6001 -58.9004)">
				<stop  offset="0" style="stop-color:#58595B"/>
				<stop  offset="0.4242" style="stop-color:#FFFFFF"/>
				<stop  offset="0.6061" style="stop-color:#F1F0F0"/>
				<stop  offset="1" style="stop-color:#58595B"/>
			</linearGradient>
			<path fill="url(#SVGID_3_)" stroke="#FFFFFF" stroke-width="0.5" d="M43.971,11.905c0.07,0.663,0.14,1.326,0.211,1.99"/>
			
				<linearGradient id="SVGID_4_" gradientUnits="userSpaceOnUse" x1="87.5137" y1="-72.4038" x2="87.9297" y2="-72.4038" gradientTransform="matrix(1 0 0 -1 -47.6001 -58.9004)">
				<stop  offset="0" style="stop-color:#58595B"/>
				<stop  offset="0.4242" style="stop-color:#FFFFFF"/>
				<stop  offset="0.6061" style="stop-color:#F1F0F0"/>
				<stop  offset="1" style="stop-color:#58595B"/>
			</linearGradient>
			<path fill="url(#SVGID_4_)" stroke="#FFFFFF" stroke-width="0.5" d="M39.913,12.525c0.139,0.65,0.277,1.305,0.416,1.957"/>
			
				<linearGradient id="SVGID_5_" gradientUnits="userSpaceOnUse" x1="83.2656" y1="-73.4854" x2="83.8828" y2="-73.4854" gradientTransform="matrix(1 0 0 -1 -47.6001 -58.9004)">
				<stop  offset="0" style="stop-color:#58595B"/>
				<stop  offset="0.4242" style="stop-color:#FFFFFF"/>
				<stop  offset="0.6061" style="stop-color:#F1F0F0"/>
				<stop  offset="1" style="stop-color:#58595B"/>
			</linearGradient>
			<path fill="url(#SVGID_5_)" stroke="#FFFFFF" stroke-width="0.5" d="M35.665,13.635c0.203,0.633,0.41,1.269,0.617,1.9"/>
			
				<linearGradient id="SVGID_6_" gradientUnits="userSpaceOnUse" x1="79.6182" y1="-74.8813" x2="80.4561" y2="-74.8813" gradientTransform="matrix(1 0 0 -1 -47.6001 -58.9004)">
				<stop  offset="0" style="stop-color:#58595B"/>
				<stop  offset="0.4242" style="stop-color:#FFFFFF"/>
				<stop  offset="0.6061" style="stop-color:#F1F0F0"/>
				<stop  offset="1" style="stop-color:#58595B"/>
			</linearGradient>
			<path fill="url(#SVGID_6_)" stroke="#FFFFFF" stroke-width="0.5" d="M32.018,15.072c0.281,0.606,0.559,1.214,0.838,1.818"/>
		</g>
		<g>
			
				<linearGradient id="SVGID_7_" gradientUnits="userSpaceOnUse" x1="72.1465" y1="-79.1875" x2="73.3242" y2="-79.1875" gradientTransform="matrix(1 0 0 -1 -47.6001 -58.9004)">
				<stop  offset="0" style="stop-color:#58595B"/>
				<stop  offset="0.4242" style="stop-color:#FFFFFF"/>
				<stop  offset="0.6061" style="stop-color:#F1F0F0"/>
				<stop  offset="1" style="stop-color:#58595B"/>
			</linearGradient>
			<path fill="url(#SVGID_7_)" stroke="#FFFFFF" stroke-width="0.5" d="M24.546,19.478c0.393,0.539,0.784,1.079,1.178,1.618"/>
			
				<linearGradient id="SVGID_8_" gradientUnits="userSpaceOnUse" x1="69.0391" y1="-81.8574" x2="70.3779" y2="-81.8574" gradientTransform="matrix(1 0 0 -1 -47.6001 -58.9004)">
				<stop  offset="0" style="stop-color:#58595B"/>
				<stop  offset="0.4242" style="stop-color:#FFFFFF"/>
				<stop  offset="0.6061" style="stop-color:#F1F0F0"/>
				<stop  offset="1" style="stop-color:#58595B"/>
			</linearGradient>
			<path fill="url(#SVGID_8_)" stroke="#FFFFFF" stroke-width="0.5" d="M21.439,22.214c0.445,0.494,0.893,0.991,1.339,1.486"/>
			
				<linearGradient id="SVGID_9_" gradientUnits="userSpaceOnUse" x1="65.915" y1="-84.8672" x2="67.3984" y2="-84.8672" gradientTransform="matrix(1 0 0 -1 -47.6001 -58.9004)">
				<stop  offset="0" style="stop-color:#58595B"/>
				<stop  offset="0.4242" style="stop-color:#FFFFFF"/>
				<stop  offset="0.6061" style="stop-color:#F1F0F0"/>
				<stop  offset="1" style="stop-color:#58595B"/>
			</linearGradient>
			<path fill="url(#SVGID_9_)" stroke="#FFFFFF" stroke-width="0.5" d="M18.315,25.298c0.492,0.446,0.989,0.894,1.484,1.337"/>
			
				<linearGradient id="SVGID_10_" gradientUnits="userSpaceOnUse" x1="63.4766" y1="-87.8457" x2="65.1113" y2="-87.8457" gradientTransform="matrix(1 0 0 -1 -47.6001 -58.9004)">
				<stop  offset="0" style="stop-color:#58595B"/>
				<stop  offset="0.4242" style="stop-color:#FFFFFF"/>
				<stop  offset="0.6061" style="stop-color:#F1F0F0"/>
				<stop  offset="1" style="stop-color:#58595B"/>
			</linearGradient>
			<path fill="url(#SVGID_10_)" stroke="#FFFFFF" stroke-width="0.5" d="M15.876,28.367c0.547,0.384,1.091,0.772,1.635,1.156"/>
		</g>
		<g>
			
				<linearGradient id="SVGID_11_" gradientUnits="userSpaceOnUse" x1="59.6182" y1="-94.3984" x2="61.4473" y2="-94.3984" gradientTransform="matrix(1 0 0 -1 -47.6001 -58.9004)">
				<stop  offset="0" style="stop-color:#58595B"/>
				<stop  offset="0.4242" style="stop-color:#FFFFFF"/>
				<stop  offset="0.6061" style="stop-color:#F1F0F0"/>
				<stop  offset="1" style="stop-color:#58595B"/>
			</linearGradient>
			<path fill="url(#SVGID_11_)" stroke="#FFFFFF" stroke-width="0.5" d="M12.018,35.092c0.609,0.271,1.219,0.542,1.829,0.813"/>
			
				<linearGradient id="SVGID_12_" gradientUnits="userSpaceOnUse" x1="58.2949" y1="-98.2246" x2="60.1973" y2="-98.2246" gradientTransform="matrix(1 0 0 -1 -47.6001 -58.9004)">
				<stop  offset="0" style="stop-color:#58595B"/>
				<stop  offset="0.4242" style="stop-color:#FFFFFF"/>
				<stop  offset="0.6061" style="stop-color:#F1F0F0"/>
				<stop  offset="1" style="stop-color:#58595B"/>
			</linearGradient>
			<path fill="url(#SVGID_12_)" stroke="#FFFFFF" stroke-width="0.5" d="M10.695,39.015c0.632,0.205,1.269,0.412,1.902,0.618"/>
			
				<linearGradient id="SVGID_13_" gradientUnits="userSpaceOnUse" x1="57.1328" y1="-102.3564" x2="59.0869" y2="-102.3564" gradientTransform="matrix(1 0 0 -1 -47.6001 -58.9004)">
				<stop  offset="0" style="stop-color:#58595B"/>
				<stop  offset="0.4242" style="stop-color:#FFFFFF"/>
				<stop  offset="0.6061" style="stop-color:#F1F0F0"/>
				<stop  offset="1" style="stop-color:#58595B"/>
			</linearGradient>
			<path fill="url(#SVGID_13_)" stroke="#FFFFFF" stroke-width="0.5" d="M9.532,43.248c0.65,0.141,1.304,0.279,1.955,0.416"/>
			
				<linearGradient id="SVGID_14_" gradientUnits="userSpaceOnUse" x1="56.5547" y1="-106.1172" x2="58.5479" y2="-106.1172" gradientTransform="matrix(1 0 0 -1 -47.6001 -58.9004)">
				<stop  offset="0" style="stop-color:#58595B"/>
				<stop  offset="0.4242" style="stop-color:#FFFFFF"/>
				<stop  offset="0.6061" style="stop-color:#F1F0F0"/>
				<stop  offset="1" style="stop-color:#58595B"/>
			</linearGradient>
			<path fill="url(#SVGID_14_)" stroke="#FFFFFF" stroke-width="0.5" d="M8.954,47.125c0.665,0.06,1.331,0.123,1.994,0.184"/>
		</g>
		<g>
			
				<linearGradient id="SVGID_15_" gradientUnits="userSpaceOnUse" x1="56.709" y1="-113.9238" x2="58.6992" y2="-113.9238" gradientTransform="matrix(1 0 0 -1 -47.6001 -58.9004)">
				<stop  offset="0" style="stop-color:#58595B"/>
				<stop  offset="0.4242" style="stop-color:#FFFFFF"/>
				<stop  offset="0.6061" style="stop-color:#F1F0F0"/>
				<stop  offset="1" style="stop-color:#58595B"/>
			</linearGradient>
			<path fill="url(#SVGID_15_)" stroke="#FFFFFF" stroke-width="0.5" d="M9.109,55.129c0.663-0.07,1.327-0.14,1.99-0.211"/>
			
				<linearGradient id="SVGID_16_" gradientUnits="userSpaceOnUse" x1="57.5254" y1="-117.8799" x2="59.4824" y2="-117.8799" gradientTransform="matrix(1 0 0 -1 -47.6001 -58.9004)">
				<stop  offset="0" style="stop-color:#58595B"/>
				<stop  offset="0.4242" style="stop-color:#FFFFFF"/>
				<stop  offset="0.6061" style="stop-color:#F1F0F0"/>
				<stop  offset="1" style="stop-color:#58595B"/>
			</linearGradient>
			<path fill="url(#SVGID_16_)" stroke="#FFFFFF" stroke-width="0.5" d="M9.925,59.188c0.65-0.139,1.305-0.273,1.957-0.416"/>
			
				<linearGradient id="SVGID_17_" gradientUnits="userSpaceOnUse" x1="58.6348" y1="-122.0273" x2="60.5352" y2="-122.0273" gradientTransform="matrix(1 0 0 -1 -47.6001 -58.9004)">
				<stop  offset="0" style="stop-color:#58595B"/>
				<stop  offset="0.4242" style="stop-color:#FFFFFF"/>
				<stop  offset="0.6061" style="stop-color:#F1F0F0"/>
				<stop  offset="1" style="stop-color:#58595B"/>
			</linearGradient>
			<path fill="url(#SVGID_17_)" stroke="#FFFFFF" stroke-width="0.5" d="M11.034,63.436c0.633-0.203,1.269-0.41,1.901-0.617"/>
			
				<linearGradient id="SVGID_18_" gradientUnits="userSpaceOnUse" x1="60.0732" y1="-125.5635" x2="61.8906" y2="-125.5635" gradientTransform="matrix(1 0 0 -1 -47.6001 -58.9004)">
				<stop  offset="0" style="stop-color:#58595B"/>
				<stop  offset="0.4242" style="stop-color:#FFFFFF"/>
				<stop  offset="0.6061" style="stop-color:#F1F0F0"/>
				<stop  offset="1" style="stop-color:#58595B"/>
			</linearGradient>
			<path fill="url(#SVGID_18_)" stroke="#FFFFFF" stroke-width="0.5" d="M12.473,67.082c0.605-0.281,1.214-0.559,1.818-0.838"/>
		</g>
		<g>
			
				<linearGradient id="SVGID_19_" gradientUnits="userSpaceOnUse" x1="64.4766" y1="-132.6934" x2="66.0938" y2="-132.6934" gradientTransform="matrix(1 0 0 -1 -47.6001 -58.9004)">
				<stop  offset="0" style="stop-color:#58595B"/>
				<stop  offset="0.4242" style="stop-color:#FFFFFF"/>
				<stop  offset="0.6061" style="stop-color:#F1F0F0"/>
				<stop  offset="1" style="stop-color:#58595B"/>
			</linearGradient>
			<path fill="url(#SVGID_19_)" stroke="#FFFFFF" stroke-width="0.5" d="M16.877,74.382c0.538-0.394,1.079-0.784,1.617-1.178"/>
			
				<linearGradient id="SVGID_20_" gradientUnits="userSpaceOnUse" x1="67.2129" y1="-135.7188" x2="68.6992" y2="-135.7188" gradientTransform="matrix(1 0 0 -1 -47.6001 -58.9004)">
				<stop  offset="0" style="stop-color:#58595B"/>
				<stop  offset="0.4242" style="stop-color:#FFFFFF"/>
				<stop  offset="0.6061" style="stop-color:#F1F0F0"/>
				<stop  offset="1" style="stop-color:#58595B"/>
			</linearGradient>
			<path fill="url(#SVGID_20_)" stroke="#FFFFFF" stroke-width="0.5" d="M19.613,77.488c0.494-0.445,0.991-0.895,1.486-1.34"/>
			
				<linearGradient id="SVGID_21_" gradientUnits="userSpaceOnUse" x1="70.2988" y1="-138.771" x2="71.6348" y2="-138.771" gradientTransform="matrix(1 0 0 -1 -47.6001 -58.9004)">
				<stop  offset="0" style="stop-color:#58595B"/>
				<stop  offset="0.4242" style="stop-color:#FFFFFF"/>
				<stop  offset="0.6061" style="stop-color:#F1F0F0"/>
				<stop  offset="1" style="stop-color:#58595B"/>
			</linearGradient>
			<path fill="url(#SVGID_21_)" stroke="#FFFFFF" stroke-width="0.5" d="M22.698,80.613c0.446-0.493,0.894-0.99,1.337-1.485"/>
			
				<linearGradient id="SVGID_22_" gradientUnits="userSpaceOnUse" x1="73.3662" y1="-141.1343" x2="74.5215" y2="-141.1343" gradientTransform="matrix(1 0 0 -1 -47.6001 -58.9004)">
				<stop  offset="0" style="stop-color:#58595B"/>
				<stop  offset="0.4242" style="stop-color:#FFFFFF"/>
				<stop  offset="0.6061" style="stop-color:#F1F0F0"/>
				<stop  offset="1" style="stop-color:#58595B"/>
			</linearGradient>
			<path fill="url(#SVGID_22_)" stroke="#FFFFFF" stroke-width="0.5" d="M25.766,83.051c0.384-0.546,0.771-1.091,1.156-1.634"/>
		</g>
		<g>
			
				<linearGradient id="SVGID_23_" gradientUnits="userSpaceOnUse" x1="79.791" y1="-144.4199" x2="80.6035" y2="-144.4199" gradientTransform="matrix(1 0 0 -1 -47.6001 -58.9004)">
				<stop  offset="0" style="stop-color:#58595B"/>
				<stop  offset="0.4242" style="stop-color:#FFFFFF"/>
				<stop  offset="0.6061" style="stop-color:#F1F0F0"/>
				<stop  offset="1" style="stop-color:#58595B"/>
			</linearGradient>
			<path fill="url(#SVGID_23_)" stroke="#FFFFFF" stroke-width="0.5" d="M32.191,86.434c0.27-0.605,0.542-1.219,0.812-1.828"/>
			
				<linearGradient id="SVGID_24_" gradientUnits="userSpaceOnUse" x1="83.7129" y1="-145.7051" x2="84.3311" y2="-145.7051" gradientTransform="matrix(1 0 0 -1 -47.6001 -58.9004)">
				<stop  offset="0" style="stop-color:#58595B"/>
				<stop  offset="0.4242" style="stop-color:#FFFFFF"/>
				<stop  offset="0.6061" style="stop-color:#F1F0F0"/>
				<stop  offset="1" style="stop-color:#58595B"/>
			</linearGradient>
			<path fill="url(#SVGID_24_)" stroke="#FFFFFF" stroke-width="0.5" d="M36.113,87.756c0.205-0.633,0.412-1.27,0.618-1.902"/>
			
				<linearGradient id="SVGID_25_" gradientUnits="userSpaceOnUse" x1="87.9482" y1="-146.8428" x2="88.3633" y2="-146.8428" gradientTransform="matrix(1 0 0 -1 -47.6001 -58.9004)">
				<stop  offset="0" style="stop-color:#58595B"/>
				<stop  offset="0.4242" style="stop-color:#FFFFFF"/>
				<stop  offset="0.6061" style="stop-color:#F1F0F0"/>
				<stop  offset="1" style="stop-color:#58595B"/>
			</linearGradient>
			<path fill="url(#SVGID_25_)" stroke="#FFFFFF" stroke-width="0.5" d="M40.348,88.92c0.14-0.65,0.278-1.305,0.415-1.955"/>
			
				<linearGradient id="SVGID_26_" gradientUnits="userSpaceOnUse" x1="91.8242" y1="-147.4004" x2="92.0098" y2="-147.4004" gradientTransform="matrix(1 0 0 -1 -47.6001 -58.9004)">
				<stop  offset="0" style="stop-color:#58595B"/>
				<stop  offset="0.4242" style="stop-color:#FFFFFF"/>
				<stop  offset="0.6061" style="stop-color:#F1F0F0"/>
				<stop  offset="1" style="stop-color:#58595B"/>
			</linearGradient>
			<path fill="url(#SVGID_26_)" stroke="#FFFFFF" stroke-width="0.5" d="M44.224,89.496c0.06-0.664,0.123-1.33,0.185-1.992"/>
		</g>
		<g>
			
				<linearGradient id="SVGID_27_" gradientUnits="userSpaceOnUse" x1="99.8438" y1="-147.4004" x2="100.0547" y2="-147.4004" gradientTransform="matrix(1 0 0 -1 -47.6001 -58.9004)">
				<stop  offset="0" style="stop-color:#58595B"/>
				<stop  offset="0.4242" style="stop-color:#FFFFFF"/>
				<stop  offset="0.6061" style="stop-color:#F1F0F0"/>
				<stop  offset="1" style="stop-color:#58595B"/>
			</linearGradient>
			<path fill="url(#SVGID_27_)" stroke="#FFFFFF" stroke-width="0.5" d="M52.455,89.494c-0.071-0.663-0.141-1.327-0.211-1.988"/>
			
				<linearGradient id="SVGID_28_" gradientUnits="userSpaceOnUse" x1="103.6963" y1="-146.6006" x2="104.1123" y2="-146.6006" gradientTransform="matrix(1 0 0 -1 -47.6001 -58.9004)">
				<stop  offset="0" style="stop-color:#58595B"/>
				<stop  offset="0.4242" style="stop-color:#FFFFFF"/>
				<stop  offset="0.6061" style="stop-color:#F1F0F0"/>
				<stop  offset="1" style="stop-color:#58595B"/>
			</linearGradient>
			<path fill="url(#SVGID_28_)" stroke="#FFFFFF" stroke-width="0.5" d="M56.514,88.678c-0.14-0.65-0.277-1.305-0.416-1.955"/>
			
				<linearGradient id="SVGID_29_" gradientUnits="userSpaceOnUse" x1="107.7441" y1="-145.52" x2="108.3633" y2="-145.52" gradientTransform="matrix(1 0 0 -1 -47.6001 -58.9004)">
				<stop  offset="0" style="stop-color:#58595B"/>
				<stop  offset="0.4242" style="stop-color:#FFFFFF"/>
				<stop  offset="0.6061" style="stop-color:#F1F0F0"/>
				<stop  offset="1" style="stop-color:#58595B"/>
			</linearGradient>
			<path fill="url(#SVGID_29_)" stroke="#FFFFFF" stroke-width="0.5" d="M60.764,87.57c-0.205-0.635-0.412-1.271-0.619-1.901"/>
			
				<linearGradient id="SVGID_30_" gradientUnits="userSpaceOnUse" x1="111.1191" y1="-144.0337" x2="111.9551" y2="-144.0337" gradientTransform="matrix(1 0 0 -1 -47.6001 -58.9004)">
				<stop  offset="0" style="stop-color:#58595B"/>
				<stop  offset="0.4242" style="stop-color:#FFFFFF"/>
				<stop  offset="0.6061" style="stop-color:#F1F0F0"/>
				<stop  offset="1" style="stop-color:#58595B"/>
			</linearGradient>
			<path fill="url(#SVGID_30_)" stroke="#FFFFFF" stroke-width="0.5" d="M64.355,86.042c-0.279-0.604-0.562-1.213-0.836-1.817"/>
		</g>
		<g>
			
				<linearGradient id="SVGID_31_" gradientUnits="userSpaceOnUse" x1="117.2402" y1="-140.2266" x2="118.418" y2="-140.2266" gradientTransform="matrix(1 0 0 -1 -47.6001 -58.9004)">
				<stop  offset="0" style="stop-color:#58595B"/>
				<stop  offset="0.4242" style="stop-color:#FFFFFF"/>
				<stop  offset="0.6061" style="stop-color:#F1F0F0"/>
				<stop  offset="1" style="stop-color:#58595B"/>
			</linearGradient>
			<path fill="url(#SVGID_31_)" stroke="#FFFFFF" stroke-width="0.5" d="M70.818,82.135c-0.396-0.539-0.784-1.08-1.178-1.617"/>
			
				<linearGradient id="SVGID_32_" gradientUnits="userSpaceOnUse" x1="123.3242" y1="-134.8203" x2="124.8105" y2="-134.8203" gradientTransform="matrix(1 0 0 -1 -47.6001 -58.9004)">
				<stop  offset="0" style="stop-color:#58595B"/>
				<stop  offset="0.4242" style="stop-color:#FFFFFF"/>
				<stop  offset="0.6061" style="stop-color:#F1F0F0"/>
				<stop  offset="1" style="stop-color:#58595B"/>
			</linearGradient>
			<path fill="url(#SVGID_32_)" stroke="#FFFFFF" stroke-width="0.5" d="M77.21,76.589c-0.494-0.446-0.989-0.894-1.485-1.338"/>
			
				<linearGradient id="SVGID_33_" gradientUnits="userSpaceOnUse" x1="120.3105" y1="-137.7695" x2="121.6484" y2="-137.7695" gradientTransform="matrix(1 0 0 -1 -47.6001 -58.9004)">
				<stop  offset="0" style="stop-color:#58595B"/>
				<stop  offset="0.4242" style="stop-color:#FFFFFF"/>
				<stop  offset="0.6061" style="stop-color:#F1F0F0"/>
				<stop  offset="1" style="stop-color:#58595B"/>
			</linearGradient>
			<path fill="url(#SVGID_33_)" stroke="#FFFFFF" stroke-width="0.5" d="M74.049,79.611c-0.445-0.493-0.893-0.99-1.339-1.484"/>
			
				<linearGradient id="SVGID_34_" gradientUnits="userSpaceOnUse" x1="125.5254" y1="-131.792" x2="127.1582" y2="-131.792" gradientTransform="matrix(1 0 0 -1 -47.6001 -58.9004)">
				<stop  offset="0" style="stop-color:#58595B"/>
				<stop  offset="0.4242" style="stop-color:#FFFFFF"/>
				<stop  offset="0.6061" style="stop-color:#F1F0F0"/>
				<stop  offset="1" style="stop-color:#58595B"/>
			</linearGradient>
			<path fill="url(#SVGID_34_)" stroke="#FFFFFF" stroke-width="0.5" d="M79.559,73.469c-0.545-0.384-1.09-0.771-1.634-1.154"/>
		</g>
		<g>
			
				<linearGradient id="SVGID_35_" gradientUnits="userSpaceOnUse" x1="129.0781" y1="-125.0898" x2="130.9043" y2="-125.0898" gradientTransform="matrix(1 0 0 -1 -47.6001 -58.9004)">
				<stop  offset="0" style="stop-color:#58595B"/>
				<stop  offset="0.4242" style="stop-color:#FFFFFF"/>
				<stop  offset="0.6061" style="stop-color:#F1F0F0"/>
				<stop  offset="1" style="stop-color:#58595B"/>
			</linearGradient>
			<path fill="url(#SVGID_35_)" stroke="#FFFFFF" stroke-width="0.5" d="M83.305,66.596c-0.604-0.271-1.219-0.543-1.826-0.813"/>
			
				<linearGradient id="SVGID_36_" gradientUnits="userSpaceOnUse" x1="131.7109" y1="-117.29" x2="133.668" y2="-117.29" gradientTransform="matrix(1 0 0 -1 -47.6001 -58.9004)">
				<stop  offset="0" style="stop-color:#58595B"/>
				<stop  offset="0.4242" style="stop-color:#FFFFFF"/>
				<stop  offset="0.6061" style="stop-color:#F1F0F0"/>
				<stop  offset="1" style="stop-color:#58595B"/>
			</linearGradient>
			<path fill="url(#SVGID_36_)" stroke="#FFFFFF" stroke-width="0.5" d="M86.068,58.598c-0.651-0.139-1.305-0.277-1.957-0.416"/>
			
				<linearGradient id="SVGID_37_" gradientUnits="userSpaceOnUse" x1="130.5391" y1="-121.3887" x2="132.4414" y2="-121.3887" gradientTransform="matrix(1 0 0 -1 -47.6001 -58.9004)">
				<stop  offset="0" style="stop-color:#58595B"/>
				<stop  offset="0.4242" style="stop-color:#FFFFFF"/>
				<stop  offset="0.6061" style="stop-color:#F1F0F0"/>
				<stop  offset="1" style="stop-color:#58595B"/>
			</linearGradient>
			<path fill="url(#SVGID_37_)" stroke="#FFFFFF" stroke-width="0.5" d="M84.842,62.797c-0.633-0.205-1.27-0.412-1.902-0.617"/>
			
				<linearGradient id="SVGID_38_" gradientUnits="userSpaceOnUse" x1="132.1504" y1="-113.5303" x2="134.1406" y2="-113.5303" gradientTransform="matrix(1 0 0 -1 -47.6001 -58.9004)">
				<stop  offset="0" style="stop-color:#58595B"/>
				<stop  offset="0.4242" style="stop-color:#FFFFFF"/>
				<stop  offset="0.6061" style="stop-color:#F1F0F0"/>
				<stop  offset="1" style="stop-color:#58595B"/>
			</linearGradient>
			<path fill="url(#SVGID_38_)" stroke="#FFFFFF" stroke-width="0.5" d="M86.541,54.722c-0.663-0.061-1.328-0.124-1.991-0.185"/>
		</g>
		<g>
			
				<linearGradient id="SVGID_39_" gradientUnits="userSpaceOnUse" x1="132.0664" y1="-105.4805" x2="134.0547" y2="-105.4805" gradientTransform="matrix(1 0 0 -1 -47.6001 -58.9004)">
				<stop  offset="0" style="stop-color:#58595B"/>
				<stop  offset="0.4242" style="stop-color:#FFFFFF"/>
				<stop  offset="0.6061" style="stop-color:#F1F0F0"/>
				<stop  offset="1" style="stop-color:#58595B"/>
			</linearGradient>
			<path fill="url(#SVGID_39_)" stroke="#FFFFFF" stroke-width="0.5" d="M86.455,46.475c-0.662,0.07-1.327,0.139-1.988,0.21"/>
			
				<linearGradient id="SVGID_40_" gradientUnits="userSpaceOnUse" x1="130.5527" y1="-97.3755" x2="132.4492" y2="-97.3755" gradientTransform="matrix(1 0 0 -1 -47.6001 -58.9004)">
				<stop  offset="0" style="stop-color:#58595B"/>
				<stop  offset="0.4242" style="stop-color:#FFFFFF"/>
				<stop  offset="0.6061" style="stop-color:#F1F0F0"/>
				<stop  offset="1" style="stop-color:#58595B"/>
			</linearGradient>
			<path fill="url(#SVGID_40_)" stroke="#FFFFFF" stroke-width="0.5" d="M84.85,38.166c-0.633,0.206-1.269,0.412-1.897,0.618"/>
			
				<linearGradient id="SVGID_41_" gradientUnits="userSpaceOnUse" x1="131.5313" y1="-101.5259" x2="133.4863" y2="-101.5259" gradientTransform="matrix(1 0 0 -1 -47.6001 -58.9004)">
				<stop  offset="0" style="stop-color:#58595B"/>
				<stop  offset="0.4242" style="stop-color:#FFFFFF"/>
				<stop  offset="0.6061" style="stop-color:#F1F0F0"/>
				<stop  offset="1" style="stop-color:#58595B"/>
			</linearGradient>
			<path fill="url(#SVGID_41_)" stroke="#FFFFFF" stroke-width="0.5" d="M85.887,42.417c-0.65,0.139-1.304,0.278-1.955,0.417"/>
			
				<linearGradient id="SVGID_42_" gradientUnits="userSpaceOnUse" x1="129.1055" y1="-93.8916" x2="130.9199" y2="-93.8916" gradientTransform="matrix(1 0 0 -1 -47.6001 -58.9004)">
				<stop  offset="0" style="stop-color:#58595B"/>
				<stop  offset="0.4242" style="stop-color:#FFFFFF"/>
				<stop  offset="0.6061" style="stop-color:#F1F0F0"/>
				<stop  offset="1" style="stop-color:#58595B"/>
			</linearGradient>
			<path fill="url(#SVGID_42_)" stroke="#FFFFFF" stroke-width="0.5" d="M83.32,34.574c-0.604,0.279-1.211,0.557-1.815,0.835"/>
		</g>
		<g>
			
				<linearGradient id="SVGID_43_" gradientUnits="userSpaceOnUse" x1="125.3926" y1="-87.5112" x2="127.0098" y2="-87.5112" gradientTransform="matrix(1 0 0 -1 -47.6001 -58.9004)">
				<stop  offset="0" style="stop-color:#58595B"/>
				<stop  offset="0.4242" style="stop-color:#FFFFFF"/>
				<stop  offset="0.6061" style="stop-color:#F1F0F0"/>
				<stop  offset="1" style="stop-color:#58595B"/>
			</linearGradient>
			<path fill="url(#SVGID_43_)" stroke="#FFFFFF" stroke-width="0.5" d="M79.41,28.023c-0.539,0.392-1.08,0.784-1.617,1.176"/>
			
				<linearGradient id="SVGID_44_" gradientUnits="userSpaceOnUse" x1="120.127" y1="-81.2734" x2="121.4648" y2="-81.2734" gradientTransform="matrix(1 0 0 -1 -47.6001 -58.9004)">
				<stop  offset="0" style="stop-color:#58595B"/>
				<stop  offset="0.4242" style="stop-color:#FFFFFF"/>
				<stop  offset="0.6061" style="stop-color:#F1F0F0"/>
				<stop  offset="1" style="stop-color:#58595B"/>
			</linearGradient>
			<path fill="url(#SVGID_44_)" stroke="#FFFFFF" stroke-width="0.5" d="M73.865,21.63c-0.445,0.495-0.893,0.991-1.338,1.486"/>
			
				<linearGradient id="SVGID_45_" gradientUnits="userSpaceOnUse" x1="123.0039" y1="-84.3628" x2="124.4883" y2="-84.3628" gradientTransform="matrix(1 0 0 -1 -47.6001 -58.9004)">
				<stop  offset="0" style="stop-color:#58595B"/>
				<stop  offset="0.4242" style="stop-color:#FFFFFF"/>
				<stop  offset="0.6061" style="stop-color:#F1F0F0"/>
				<stop  offset="1" style="stop-color:#58595B"/>
			</linearGradient>
			<path fill="url(#SVGID_45_)" stroke="#FFFFFF" stroke-width="0.5" d="M76.889,24.793c-0.494,0.446-0.99,0.893-1.484,1.339"/>
			
				<linearGradient id="SVGID_46_" gradientUnits="userSpaceOnUse" x1="117.1895" y1="-79.0005" x2="118.3457" y2="-79.0005" gradientTransform="matrix(1 0 0 -1 -47.6001 -58.9004)">
				<stop  offset="0" style="stop-color:#58595B"/>
				<stop  offset="0.4242" style="stop-color:#FFFFFF"/>
				<stop  offset="0.6061" style="stop-color:#F1F0F0"/>
				<stop  offset="1" style="stop-color:#58595B"/>
			</linearGradient>
			<path fill="url(#SVGID_46_)" stroke="#FFFFFF" stroke-width="0.5" d="M70.746,19.284c-0.385,0.544-0.771,1.088-1.156,1.632"/>
		</g>
		<g>
			
				<linearGradient id="SVGID_47_" gradientUnits="userSpaceOnUse" x1="110.8926" y1="-75.2998" x2="111.7051" y2="-75.2998" gradientTransform="matrix(1 0 0 -1 -47.6001 -58.9004)">
				<stop  offset="0" style="stop-color:#58595B"/>
				<stop  offset="0.4242" style="stop-color:#FFFFFF"/>
				<stop  offset="0.6061" style="stop-color:#F1F0F0"/>
				<stop  offset="1" style="stop-color:#58595B"/>
			</linearGradient>
			<path fill="url(#SVGID_47_)" stroke="#FFFFFF" stroke-width="0.5" d="M64.105,15.486c-0.271,0.609-0.541,1.218-0.813,1.827"/>
			
				<linearGradient id="SVGID_48_" gradientUnits="userSpaceOnUse" x1="103.292" y1="-72.6006" x2="103.708" y2="-72.6006" gradientTransform="matrix(1 0 0 -1 -47.6001 -58.9004)">
				<stop  offset="0" style="stop-color:#58595B"/>
				<stop  offset="0.4242" style="stop-color:#FFFFFF"/>
				<stop  offset="0.6061" style="stop-color:#F1F0F0"/>
				<stop  offset="1" style="stop-color:#58595B"/>
			</linearGradient>
			<path fill="url(#SVGID_48_)" stroke="#FFFFFF" stroke-width="0.5" d="M56.107,12.722c-0.142,0.652-0.276,1.304-0.416,1.956"/>
			
				<linearGradient id="SVGID_49_" gradientUnits="userSpaceOnUse" x1="107.291" y1="-73.8003" x2="107.9082" y2="-73.8003" gradientTransform="matrix(1 0 0 -1 -47.6001 -58.9004)">
				<stop  offset="0" style="stop-color:#58595B"/>
				<stop  offset="0.4242" style="stop-color:#FFFFFF"/>
				<stop  offset="0.6061" style="stop-color:#F1F0F0"/>
				<stop  offset="1" style="stop-color:#58595B"/>
			</linearGradient>
			<path fill="url(#SVGID_49_)" stroke="#FFFFFF" stroke-width="0.5" d="M60.309,13.949c-0.205,0.634-0.412,1.27-0.617,1.902"/>
			
				<linearGradient id="SVGID_50_" gradientUnits="userSpaceOnUse" x1="99.5078" y1="-71.8999" x2="99.6934" y2="-71.8999" gradientTransform="matrix(1 0 0 -1 -47.6001 -58.9004)">
				<stop  offset="0" style="stop-color:#58595B"/>
				<stop  offset="0.4242" style="stop-color:#FFFFFF"/>
				<stop  offset="0.6061" style="stop-color:#F1F0F0"/>
				<stop  offset="1" style="stop-color:#58595B"/>
			</linearGradient>
			<path fill="url(#SVGID_50_)" stroke="#FFFFFF" stroke-width="0.5" d="M52.093,12.004c-0.062,0.664-0.124,1.328-0.186,1.991"/>
		</g>
		<g id="Layer_3_copy_5">
			<path fill="none" stroke="#FFFFFF" stroke-width="0.5" d="M86.6,50.753c-0.666-0.001-1.334,0-2,0"/>
		</g>
		<g id="Layer_3_copy_2">
			<path fill="none" stroke="#FFFFFF" stroke-width="0.5" d="M67.5,17.134c-0.334,0.577-0.667,1.155-1,1.732"/>
		</g>
		<g id="Layer_3_copy_4">
			<path fill="none" stroke="#FFFFFF" stroke-width="0.5" d="M81.506,31.5c-0.578,0.333-1.154,0.667-1.732,1"/>
		</g>
		
			<linearGradient id="SVGID_51_" gradientUnits="userSpaceOnUse" x1="95.4297" y1="-71.6006" x2="95.4297" y2="-71.6006" gradientTransform="matrix(1 0 0 -1 -47.6001 -58.9004)">
			<stop  offset="0" style="stop-color:#58595B"/>
			<stop  offset="0.4242" style="stop-color:#FFFFFF"/>
			<stop  offset="0.6061" style="stop-color:#F1F0F0"/>
			<stop  offset="1" style="stop-color:#58595B"/>
		</linearGradient>
		<path fill="url(#SVGID_51_)" stroke="#FFFFFF" stroke-width="0.5" d="M47.83,11.7c0,0.667,0,1.333,0,2"/>
	</g>
</g>
<g>
	<circle fill="#FFFFFF" stroke="#B2B2B2" stroke-width="0.25" cx="30.5" cy="21" r="1.75"/>
	<circle fill="#FFFFFF" stroke="#B2B2B2" stroke-width="0.25" cx="18.1" cy="33.75" r="1.75"/>
	<circle fill="#FFFFFF" stroke="#B2B2B2" stroke-width="0.25" cx="18.833" cy="68.9" r="1.75"/>
	<circle fill="#FFFFFF" stroke="#B2B2B2" stroke-width="0.25" cx="31.5" cy="81" r="1.75"/>
	<circle fill="#FFFFFF" stroke="#B2B2B2" stroke-width="0.25" cx="65.5" cy="80.3" r="1.75"/>
	<circle fill="#FFFFFF" stroke="#B2B2B2" stroke-width="0.25" cx="77.5" cy="68" r="1.75"/>
	<circle fill="#FFFFFF" stroke="#B2B2B2" stroke-width="0.25" cx="65" cy="21" r="1.75"/>
	<circle fill="#FFFFFF" stroke="#B2B2B2" stroke-width="0.25" cx="77.333" cy="33.75" r="1.75"/>
	<polygon fill="#FFFFFF" stroke="#B2B2B2" stroke-width="0.25" points="47.9,14.745 50.9,14.745 49.4,19 47.9,23.255 46.4,19 
		44.9,14.745 	"/>
	<rect x="11.833" y="49.717" fill="#FFFFFF" stroke="#B2B2B2" stroke-width="0.25" width="8.75" height="2.166"/>
	<rect x="74.875" y="49.717" fill="#FFFFFF" stroke="#B2B2B2" stroke-width="0.25" width="8.75" height="2.166"/>
	<rect x="46.747" y="78.125" fill="#FFFFFF" stroke="#B2B2B2" stroke-width="0.25" width="2.166" height="8.75"/>
</g>
<g>
	<polygon points="47.82,6.32 51.318,6.32 49.57,8.26 47.82,10.2 46.07,8.26 44.32,6.32 	"/>
	
		<linearGradient id="SVGID_52_" gradientUnits="userSpaceOnUse" x1="93.5" y1="-67.1616" x2="97.5" y2="-67.1616" gradientTransform="matrix(1 0 0 -1 -47.6001 -58.9004)">
		<stop  offset="0" style="stop-color:#58595B"/>
		<stop  offset="0.4242" style="stop-color:#FFFFFF"/>
		<stop  offset="0.6061" style="stop-color:#F1F0F0"/>
		<stop  offset="1" style="stop-color:#58595B"/>
	</linearGradient>
	<circle fill="url(#SVGID_52_)" stroke="#000000" stroke-width="0.25" cx="47.9" cy="8.261" r="2"/>
</g>
<g>
	
		<rect x="69.069" y="11.319" transform="matrix(0.8659 0.5001 -0.5001 0.8659 16.2869 -33.072)" fill="#020202" width="1.534" height="5.053"/>
	<rect x="88.273" y="49.987" fill="#020202" width="5.053" height="1.532"/>
	<rect x="2.474" y="49.987" fill="#020202" width="5.052" height="1.532"/>
	
		<rect x="26.152" y="85.974" transform="matrix(0.8654 0.5011 -0.5011 0.8654 47.9676 -1.5763)" fill="#020202" width="1.532" height="5.05"/>
	<rect x="25.579" y="11.108" transform="matrix(0.8666 -0.4991 0.4991 0.8666 -3.2889 14.9669)" width="1.533" height="5.052"/>
</g>
<g id="Numbers">
	<g>
		<path d="M10.286,26.803c-0.151,0.262-0.308,0.645-0.224,0.841c0.096,0.22,0.468,0.397,0.715,0.581
			c0.381,0.284,1.366,0.808,1.764,0.942c0.35,0.119,0.458-0.042,0.692-0.334c0.125-0.156,0.429-0.662,0.501-0.859
			c0.122-0.333,0.234-0.532-0.028-0.765c-0.213-0.19-0.511-0.391-0.8-0.559l-0.691-0.399c-0.271-0.156-0.76-0.406-0.995-0.442
			c-0.274-0.043-0.534,0.3-0.711,0.608L10.286,26.803L10.286,26.803z M9.908,26.612l0.258-0.446c0.234-0.406,0.61-0.892,0.951-0.873
			c0.325,0.016,0.946,0.316,1.338,0.542l0.67,0.387c0.38,0.22,1.003,0.636,1.128,0.907c0.147,0.324-0.022,0.858-0.272,1.292
			l-0.223,0.386c-0.267,0.463-0.709,0.953-1.113,0.876c-0.442-0.083-1.041-0.414-1.545-0.705c-0.5-0.289-1.05-0.6-1.383-0.96
			c-0.188-0.203-0.198-0.371-0.134-0.642C9.635,27.159,9.771,26.849,9.908,26.612z"/>
		<path d="M10.225,32.408c0.597,0.345,0.81,0.249,1.152-0.343l0.236-0.409c0.376-0.653,0.269-0.88-0.38-1.254l-0.337-0.195
			c-0.566-0.327-0.849-0.206-1.174,0.357L9.54,30.88c-0.104,0.18-0.184,0.396-0.211,0.558c-0.013,0.071-0.015,0.18,0,0.25
			c0.014,0.066,0.111,0.19,0.096,0.216l-0.212,0.368l-1.922-1.11l1.47-2.546l0.368,0.213l-1.223,2.118l1.112,0.67
			c-0.004-0.075-0.035-0.135-0.041-0.232c-0.005-0.08,0.006-0.16,0.023-0.248c0.032-0.156,0.114-0.373,0.211-0.541l0.177-0.307
			c0.438-0.758,0.961-0.959,1.719-0.522l0.358,0.207c0.892,0.515,1.039,0.989,0.522,1.883l-0.225,0.389
			c-0.413,0.716-0.846,1.106-1.57,0.688l-0.245-0.142l0.236-0.409L10.225,32.408z"/>
	</g>
	<g>
		<path d="M10.244,75.51l3.283,0.43l-1.004-1.752L10.244,75.51L10.244,75.51z M12.892,73.975l1.219,2.112l-0.513,0.295
			c-0.014,0.011-1.606-0.206-1.758-0.231c-0.178-0.028-1.729-0.219-1.752-0.258l-0.379-0.656l2.564-1.479l-0.332-0.572l0.369-0.215
			l0.332,0.573l0.862-0.497l0.248,0.432L12.892,73.975z"/>
		<path d="M8.685,72.771c0.155,0.269,0.416,0.604,0.635,0.631c0.245,0.029,0.594-0.213,0.886-0.338
			c0.449-0.192,1.423-0.801,1.748-1.086c0.285-0.252,0.197-0.436,0.056-0.791c-0.074-0.189-0.369-0.726-0.506-0.892
			c-0.236-0.274-0.354-0.479-0.697-0.364c-0.279,0.09-0.61,0.254-0.909,0.426l-0.711,0.41c-0.279,0.162-0.754,0.469-0.907,0.655
			c-0.18,0.226-0.007,0.636,0.176,0.948L8.685,72.771L8.685,72.771z M8.32,73.01l-0.265-0.459c-0.241-0.418-0.48-1.003-0.289-1.297
			c0.183-0.281,0.769-0.682,1.172-0.914l0.69-0.398c0.392-0.227,1.084-0.563,1.389-0.537c0.366,0.033,0.754,0.464,1.012,0.908
			l0.23,0.396c0.274,0.477,0.483,1.121,0.207,1.441c-0.302,0.351-0.904,0.716-1.423,1.016c-0.517,0.297-1.076,0.628-1.568,0.738
			c-0.277,0.064-0.433-0.014-0.641-0.211C8.666,73.534,8.461,73.254,8.32,73.01z"/>
	</g>
	<g>
		<path d="M50.834,92.42c0-0.275-0.038-0.584-0.208-0.688c-0.127-0.078-0.563-0.111-0.786-0.111h-0.528
			c-0.602,0-0.859,0.141-0.859,0.75v0.295c0,0.52,0.256,0.662,0.773,0.662h0.798v0.453h-0.503c-0.221,0-0.551,0.025-0.717,0.082
			c-0.189,0.064-0.265,0.285-0.265,0.533v0.293c0,0.623,0.271,0.688,0.883,0.688h0.503c0.815,0,0.849-0.205,0.849-1.007h0.49v0.258
			c0,0.386-0.089,0.797-0.308,0.958c-0.222,0.163-0.645,0.232-1.031,0.232h-0.528c-0.805,0-1.362-0.17-1.362-0.981v-0.354
			c0-0.254,0.056-0.521,0.169-0.666c0.094-0.119,0.383-0.24,0.591-0.24c-0.025-0.02-0.292-0.07-0.354-0.09
			c-0.091-0.026-0.211-0.09-0.281-0.146c-0.135-0.111-0.212-0.41-0.212-0.658v-0.354c0-0.904,0.505-1.144,1.399-1.144h0.515
			c0.458,0,0.919,0.063,1.187,0.264c0.254,0.188,0.299,0.701,0.299,1.148v0.108h-0.516V92.42H50.834z"/>
		<path d="M45.792,95.451c0.329,0,0.776-0.059,0.915-0.247c0.156-0.208,0.12-0.656,0.159-0.988c0.061-0.513,0.018-1.728-0.072-2.177
			c-0.079-0.393-0.29-0.409-0.691-0.471c-0.215-0.031-0.858-0.043-1.083-0.004c-0.381,0.064-0.631,0.065-0.707,0.44
			c-0.062,0.306-0.089,0.694-0.089,1.062v0.867c0,0.34,0.032,0.938,0.123,1.178c0.108,0.283,0.575,0.34,0.961,0.34H45.792
			L45.792,95.451z M45.818,95.912h-0.562c-0.51,0-1.172-0.092-1.34-0.422c-0.162-0.314-0.217-1.063-0.217-1.557V93.09
			c0-0.479,0.055-1.293,0.243-1.559c0.223-0.316,0.818-0.446,1.365-0.446h0.484c0.583,0,1.284,0.147,1.432,0.571
			c0.162,0.464,0.177,1.203,0.177,1.841c0,0.629,0.006,1.315-0.151,1.827c-0.089,0.283-0.242,0.389-0.532,0.479
			C46.482,95.872,46.115,95.912,45.818,95.912z"/>
	</g>
	<g>
		<path d="M70.25,88.059c-0.501-0.865-0.135-1.326,0.607-1.852c0.268-0.188,0.764-0.557,0.896-0.766
			c0.158-0.248-0.135-0.742-0.334-1.086l-2.47,1.424l-0.223-0.385l2.932-1.693l0.429,0.738c0.539,0.937,0.313,1.146-0.426,1.77
			c-0.304,0.255-0.612,0.452-0.886,0.713c-0.301,0.291-0.282,0.516-0.037,0.941l0.18,0.311c0.307,0.529,0.637,0.561,1.162,0.254
			l0.396-0.229c0.521-0.303,0.834-0.567,0.523-1.098l-0.254-0.44l0.464-0.269l0.089,0.15c0.26,0.443,0.401,0.825,0.307,1.184
			c-0.076,0.276-0.524,0.649-0.892,0.859l-0.418,0.241c-0.817,0.478-1.377,0.396-1.854-0.435L70.25,88.059z"/>
		<path d="M68.406,87.041c-0.365-0.635-0.612-0.659-1.243-0.296l-0.435,0.251c-0.694,0.398-0.715,0.667-0.316,1.355l0.206,0.354
			c0.349,0.604,0.673,0.644,1.271,0.295l0.336-0.19c0.192-0.11,0.383-0.271,0.491-0.401c0.052-0.06,0.11-0.158,0.134-0.229
			c0.022-0.068,0-0.236,0.026-0.25l0.39-0.227l1.18,2.042l-2.701,1.562l-0.229-0.391l2.248-1.298l-0.666-1.208
			c-0.037,0.07-0.043,0.145-0.086,0.234c-0.039,0.076-0.091,0.145-0.154,0.215c-0.108,0.127-0.303,0.283-0.479,0.387l-0.326,0.188
			C67.246,89.9,66.657,89.805,66.191,89l-0.219-0.381c-0.55-0.947-0.434-1.461,0.521-2.008l0.411-0.24
			c0.763-0.438,1.367-0.568,1.813,0.201l0.149,0.262l-0.435,0.251L68.406,87.041z"/>
	</g>
	<g>
		<path d="M86.13,73.605c0.17-0.293,0.347-0.719,0.251-0.939c-0.107-0.246-0.523-0.443-0.799-0.648
			c-0.426-0.314-1.527-0.898-1.973-1.053c-0.395-0.133-0.514,0.047-0.771,0.373c-0.141,0.176-0.48,0.742-0.563,0.961
			c-0.135,0.372-0.262,0.594,0.031,0.854c0.235,0.216,0.567,0.438,0.896,0.625l0.771,0.445c0.303,0.176,0.853,0.452,1.11,0.493
			c0.308,0.05,0.599-0.336,0.796-0.68L86.13,73.605L86.13,73.605z M86.553,73.82l-0.287,0.496c-0.263,0.455-0.684,0.998-1.063,0.979
			c-0.364-0.021-1.059-0.354-1.496-0.607l-0.749-0.432c-0.429-0.246-1.122-0.713-1.261-1.016c-0.168-0.361,0.021-0.959,0.304-1.444
			l0.25-0.431c0.299-0.518,0.793-1.063,1.244-0.979c0.489,0.094,1.163,0.461,1.728,0.783c0.563,0.322,1.174,0.674,1.547,1.072
			c0.209,0.229,0.223,0.414,0.147,0.718C86.857,73.209,86.704,73.555,86.553,73.82z"/>
		<path d="M86.008,71.186c-0.865-0.5-0.779-1.082-0.398-1.908c0.141-0.297,0.385-0.859,0.396-1.107
			c0.016-0.292-0.484-0.57-0.832-0.771l-1.426,2.471l-0.391-0.223l1.692-2.938l0.739,0.428c0.936,0.539,0.848,0.84,0.516,1.743
			c-0.135,0.371-0.303,0.698-0.408,1.063c-0.117,0.398,0.016,0.586,0.439,0.834l0.309,0.179c0.531,0.306,0.83,0.168,1.135-0.36
			l0.229-0.396c0.304-0.521,0.438-0.905-0.093-1.216l-0.439-0.254l0.271-0.463l0.151,0.088c0.444,0.258,0.763,0.517,0.854,0.871
			c0.074,0.279-0.128,0.828-0.337,1.192l-0.243,0.417c-0.474,0.82-0.996,1.029-1.817,0.553L86.008,71.186z"/>
	</g>
	<g>
		<path d="M87.395,29.772c-0.17-0.292-0.453-0.659-0.688-0.686c-0.268-0.031-0.646,0.231-0.962,0.367
			c-0.486,0.21-1.544,0.872-1.896,1.181c-0.313,0.273-0.218,0.468-0.063,0.856c0.081,0.208,0.399,0.787,0.551,0.965
			c0.255,0.303,0.386,0.524,0.756,0.401c0.306-0.101,0.664-0.276,0.988-0.463l0.771-0.445c0.303-0.175,0.817-0.51,0.982-0.716
			c0.193-0.24,0.008-0.686-0.189-1.029L87.395,29.772L87.395,29.772z M87.79,29.514l0.288,0.499
			c0.262,0.453,0.521,1.087,0.313,1.408c-0.197,0.306-0.834,0.739-1.271,0.992l-0.748,0.433c-0.429,0.246-1.181,0.615-1.513,0.584
			c-0.396-0.038-0.815-0.5-1.098-0.986l-0.25-0.431c-0.299-0.518-0.523-1.218-0.226-1.567c0.327-0.38,0.981-0.776,1.545-1.102
			c0.562-0.323,1.168-0.682,1.702-0.803c0.302-0.068,0.47,0.016,0.695,0.229C87.412,28.945,87.637,29.25,87.79,29.514z"/>
		<path d="M84.094,26.133c0.031-0.018,0.854,0.199,0.969,0.211c0.084,0.009,0.949,0.207,0.963,0.229l0.395,0.679L82.23,29.67
			l-0.274-0.475l3.815-2.203l-1.793-0.388C83.98,26.553,84.061,26.152,84.094,26.133z"/>
	</g>
</g>
<g>
	<rect x="72.476" y="15.466" transform="matrix(-0.8112 -0.5848 0.5848 -0.8112 121.8078 73.221)" width="0.496" height="2.961"/>
	<polygon points="76.746,18.478 77.119,18.805 75.137,21.005 74.766,20.678 	"/>
	<rect x="78.892" y="21.578" transform="matrix(-0.6707 -0.7417 0.7417 -0.6707 115.1155 97.225)" width="0.495" height="2.962"/>
	<rect x="81.753" y="25.103" transform="matrix(-0.5879 -0.8089 0.8089 -0.5879 108.7069 108.544)" width="0.495" height="2.962"/>
</g>
<g>
	<rect x="52.565" y="7.706" transform="matrix(-0.9946 -0.1036 0.1036 -0.9946 104.3891 23.7943)" width="0.495" height="2.961"/>
	<polygon points="57.064,8.503 57.551,8.601 56.934,11.497 56.449,11.399 	"/>
	<rect x="61.179" y="9.793" transform="matrix(-0.9516 -0.3073 0.3073 -0.9516 116.4163 40.8812)" width="0.496" height="2.961"/>
	<rect x="65.424" y="11.419" transform="matrix(-0.914 -0.4057 0.4057 -0.914 120.4627 51.3327)" width="0.495" height="2.962"/>
</g>
</svg>
