<?xml version="1.0" encoding="utf-8"?>
<!-- Generator: Adobe Illustrator 14.0.0, SVG Export Plug-In . SVG Version: 6.00 Build 43363)  -->
<!DOCTYPE svg PUBLIC "-//W3C//DTD SVG 1.1//EN" "http://www.w3.org/Graphics/SVG/1.1/DTD/svg11.dtd">
<svg version="1.1" id="Layer_1" xmlns="http://www.w3.org/2000/svg" xmlns:xlink="http://www.w3.org/1999/xlink" x="0px" y="0px"
	 width="100px" height="112px" viewBox="0 0 100 112" enable-background="new 0 0 100 112" xml:space="preserve">
<g>
	<linearGradient id="SVGID_1_" gradientUnits="userSpaceOnUse" x1="47.8306" y1="97.252" x2="47.8306" y2="4.2534">
		<stop  offset="0.0013" style="stop-color:#BC2E01"/>
		<stop  offset="0.097" style="stop-color:#FF5A2E"/>
		<stop  offset="0.1818" style="stop-color:#BC2E01"/>
		<stop  offset="0.3636" style="stop-color:#D74013"/>
		<stop  offset="0.4545" style="stop-color:#F85529"/>
		<stop  offset="0.5818" style="stop-color:#BC2E01"/>
		<stop  offset="0.7091" style="stop-color:#BC2E01"/>
		<stop  offset="0.8364" style="stop-color:#BC2E01"/>
		<stop  offset="0.903" style="stop-color:#E4481C"/>
		<stop  offset="1" style="stop-color:#BC2E01"/>
	</linearGradient>
	<path fill="url(#SVGID_1_)" stroke="#7C7C7C" d="M47.829,4.253c25.683,0,46.501,20.814,46.501,46.499
		c0,25.684-20.818,46.5-46.501,46.5c-25.684,0-46.499-20.816-46.499-46.5C1.33,25.068,22.145,4.253,47.829,4.253z"/>
	<linearGradient id="SVGID_2_" gradientUnits="userSpaceOnUse" x1="8.3301" y1="50.7524" x2="87.3301" y2="50.7524">
		<stop  offset="0.0013" style="stop-color:#B55033"/>
		<stop  offset="0.4909" style="stop-color:#B55033"/>
		<stop  offset="1" style="stop-color:#B55033"/>
	</linearGradient>
	<path fill="url(#SVGID_2_)" stroke="#8C8C8C" stroke-width="0.5" d="M47.829,11.253c21.813,0,39.501,17.684,39.501,39.499
		c0,21.813-17.688,39.5-39.501,39.5c-21.815,0-39.499-17.688-39.499-39.5C8.33,28.937,26.014,11.253,47.829,11.253z"/>
</g>
<g id="Layer_2_1_">
	<g>
		<path fill="#FFFFFF" stroke="#FFFFFF" stroke-width="0.5" d="M43.971,11.905c0.07,0.663,0.14,1.326,0.211,1.99"/>
		<path fill="#FFFFFF" stroke="#FFFFFF" stroke-width="0.5" d="M39.913,12.525c0.139,0.65,0.277,1.305,0.416,1.957"/>
		<path fill="#FFFFFF" stroke="#FFFFFF" stroke-width="0.5" d="M35.665,13.635c0.203,0.633,0.41,1.269,0.617,1.9"/>
		<path fill="#FFFFFF" stroke="#FFFFFF" stroke-width="0.5" d="M32.018,15.072c0.281,0.606,0.559,1.214,0.838,1.818"/>
	</g>
	<g>
		<path fill="#FFFFFF" stroke="#FFFFFF" stroke-width="0.5" d="M24.546,19.478c0.393,0.539,0.784,1.079,1.178,1.618"/>
		<path fill="#FFFFFF" stroke="#FFFFFF" stroke-width="0.5" d="M21.439,22.214c0.445,0.494,0.893,0.991,1.339,1.486"/>
		<path fill="#FFFFFF" stroke="#FFFFFF" stroke-width="0.5" d="M18.315,25.298c0.492,0.446,0.989,0.894,1.484,1.337"/>
		<path fill="#FFFFFF" stroke="#FFFFFF" stroke-width="0.5" d="M15.876,28.367c0.547,0.384,1.091,0.772,1.635,1.156"/>
	</g>
	<g>
		<path fill="#FFFFFF" stroke="#FFFFFF" stroke-width="0.5" d="M12.018,35.092c0.609,0.271,1.219,0.542,1.829,0.813"/>
		<path fill="#FFFFFF" stroke="#FFFFFF" stroke-width="0.5" d="M10.695,39.015c0.632,0.205,1.269,0.412,1.902,0.618"/>
		<path fill="#FFFFFF" stroke="#FFFFFF" stroke-width="0.5" d="M9.532,43.248c0.65,0.141,1.304,0.279,1.955,0.416"/>
		<path fill="#FFFFFF" stroke="#FFFFFF" stroke-width="0.5" d="M8.954,47.125c0.665,0.06,1.331,0.123,1.994,0.184"/>
	</g>
	<g>
		<path fill="#FFFFFF" stroke="#FFFFFF" stroke-width="0.5" d="M9.109,55.129c0.663-0.07,1.327-0.14,1.99-0.211"/>
		<path fill="#FFFFFF" stroke="#FFFFFF" stroke-width="0.5" d="M9.925,59.188c0.65-0.139,1.305-0.274,1.957-0.416"/>
		<path fill="#FFFFFF" stroke="#FFFFFF" stroke-width="0.5" d="M11.034,63.436c0.633-0.203,1.269-0.41,1.901-0.617"/>
		<path fill="#FFFFFF" stroke="#FFFFFF" stroke-width="0.5" d="M12.473,67.082c0.605-0.281,1.214-0.559,1.818-0.838"/>
	</g>
	<g>
		<path fill="#FFFFFF" stroke="#FFFFFF" stroke-width="0.5" d="M16.877,74.382c0.538-0.394,1.079-0.784,1.617-1.178"/>
		<path fill="#FFFFFF" stroke="#FFFFFF" stroke-width="0.5" d="M19.613,77.488c0.494-0.445,0.991-0.895,1.486-1.34"/>
		<path fill="#FFFFFF" stroke="#FFFFFF" stroke-width="0.5" d="M22.698,80.613c0.446-0.493,0.894-0.99,1.337-1.485"/>
		<path fill="#FFFFFF" stroke="#FFFFFF" stroke-width="0.5" d="M25.766,83.051c0.384-0.546,0.771-1.091,1.156-1.634"/>
	</g>
	<g>
		<path fill="#FFFFFF" stroke="#FFFFFF" stroke-width="0.5" d="M32.191,86.434c0.27-0.606,0.542-1.219,0.812-1.828"/>
		<path fill="#FFFFFF" stroke="#FFFFFF" stroke-width="0.5" d="M36.113,87.756c0.205-0.633,0.412-1.27,0.618-1.902"/>
		<path fill="#FFFFFF" stroke="#FFFFFF" stroke-width="0.5" d="M40.348,88.92c0.14-0.65,0.278-1.305,0.415-1.955"/>
		<path fill="#FFFFFF" stroke="#FFFFFF" stroke-width="0.5" d="M44.224,89.496c0.06-0.664,0.123-1.33,0.185-1.992"/>
	</g>
	<g>
		<path fill="#FFFFFF" stroke="#FFFFFF" stroke-width="0.5" d="M52.455,89.494c-0.071-0.663-0.141-1.327-0.211-1.988"/>
		<path fill="#FFFFFF" stroke="#FFFFFF" stroke-width="0.5" d="M56.514,88.678c-0.14-0.65-0.277-1.305-0.416-1.955"/>
		<path fill="#FFFFFF" stroke="#FFFFFF" stroke-width="0.5" d="M60.764,87.57c-0.205-0.635-0.412-1.271-0.619-1.901"/>
		<path fill="#FFFFFF" stroke="#FFFFFF" stroke-width="0.5" d="M64.355,86.042c-0.279-0.604-0.561-1.213-0.836-1.817"/>
	</g>
	<g>
		<path fill="#FFFFFF" stroke="#FFFFFF" stroke-width="0.5" d="M70.818,82.134c-0.396-0.538-0.784-1.079-1.178-1.616"/>
		<path fill="#FFFFFF" stroke="#FFFFFF" stroke-width="0.5" d="M77.21,76.589c-0.494-0.446-0.989-0.894-1.485-1.338"/>
		<path fill="#FFFFFF" stroke="#FFFFFF" stroke-width="0.5" d="M74.049,79.611c-0.445-0.493-0.893-0.99-1.339-1.484"/>
		<path fill="#FFFFFF" stroke="#FFFFFF" stroke-width="0.5" d="M79.559,73.469c-0.545-0.384-1.09-0.771-1.634-1.154"/>
	</g>
	<g>
		<path fill="#FFFFFF" stroke="#FFFFFF" stroke-width="0.5" d="M83.305,66.596c-0.607-0.271-1.219-0.543-1.826-0.813"/>
		<path fill="#FFFFFF" stroke="#FFFFFF" stroke-width="0.5" d="M86.068,58.598c-0.651-0.139-1.305-0.277-1.957-0.416"/>
		<path fill="#FFFFFF" stroke="#FFFFFF" stroke-width="0.5" d="M84.842,62.797c-0.633-0.205-1.27-0.412-1.902-0.617"/>
		<path fill="#FFFFFF" stroke="#FFFFFF" stroke-width="0.5" d="M86.541,54.722c-0.663-0.061-1.328-0.124-1.991-0.185"/>
	</g>
	<g>
		<path fill="#FFFFFF" stroke="#FFFFFF" stroke-width="0.5" d="M86.455,46.475c-0.662,0.07-1.327,0.139-1.988,0.21"/>
		<path fill="#FFFFFF" stroke="#FFFFFF" stroke-width="0.5" d="M84.85,38.166c-0.633,0.206-1.269,0.412-1.898,0.618"/>
		<path fill="#FFFFFF" stroke="#FFFFFF" stroke-width="0.5" d="M85.887,42.417c-0.65,0.139-1.304,0.278-1.955,0.417"/>
		<path fill="#FFFFFF" stroke="#FFFFFF" stroke-width="0.5" d="M83.32,34.574c-0.604,0.279-1.211,0.557-1.815,0.835"/>
	</g>
	<g>
		<path fill="#FFFFFF" stroke="#FFFFFF" stroke-width="0.5" d="M79.41,28.023c-0.539,0.392-1.08,0.784-1.617,1.176"/>
		<path fill="#FFFFFF" stroke="#FFFFFF" stroke-width="0.5" d="M73.865,21.63c-0.445,0.495-0.893,0.991-1.338,1.486"/>
		<path fill="#FFFFFF" stroke="#FFFFFF" stroke-width="0.5" d="M76.889,24.793c-0.494,0.446-0.99,0.893-1.484,1.339"/>
		<path fill="#FFFFFF" stroke="#FFFFFF" stroke-width="0.5" d="M70.746,19.284c-0.385,0.544-0.771,1.088-1.156,1.632"/>
	</g>
	<g>
		<path fill="#FFFFFF" stroke="#FFFFFF" stroke-width="0.5" d="M64.105,15.486c-0.271,0.609-0.541,1.218-0.813,1.827"/>
		<path fill="#FFFFFF" stroke="#FFFFFF" stroke-width="0.5" d="M56.107,12.722c-0.141,0.652-0.276,1.304-0.416,1.956"/>
		<path fill="#FFFFFF" stroke="#FFFFFF" stroke-width="0.5" d="M60.309,13.949c-0.205,0.634-0.412,1.27-0.617,1.902"/>
		<path fill="#FFFFFF" stroke="#FFFFFF" stroke-width="0.5" d="M52.093,12.004c-0.062,0.664-0.124,1.328-0.186,1.991"/>
	</g>
	<path fill="#FFFFFF" stroke="#FFFFFF" stroke-width="0.5" d="M47.83,11.7c0,0.667,0,1.333,0,2"/>
	<circle fill="#FFFFFF" stroke="#FFFFFF" stroke-width="0.25" cx="30.5" cy="21" r="1.75"/>
	<circle fill="#FFFFFF" stroke="#FFFFFF" stroke-width="0.25" cx="18.1" cy="33.75" r="1.75"/>
	<circle fill="#FFFFFF" stroke="#FFFFFF" stroke-width="0.25" cx="18.833" cy="68.9" r="1.75"/>
	<circle fill="#FFFFFF" stroke="#FFFFFF" stroke-width="0.25" cx="31.5" cy="81" r="1.75"/>
	<circle fill="#FFFFFF" stroke="#FFFFFF" stroke-width="0.25" cx="65.5" cy="80.3" r="1.75"/>
	<circle fill="#FFFFFF" stroke="#FFFFFF" stroke-width="0.25" cx="77.5" cy="68" r="1.75"/>
	<circle fill="#FFFFFF" stroke="#FFFFFF" stroke-width="0.25" cx="65" cy="21" r="1.75"/>
	<circle fill="#FFFFFF" stroke="#FFFFFF" stroke-width="0.25" cx="77.333" cy="33.75" r="1.75"/>
	<polygon fill="#FFFFFF" stroke="#FFFFFF" stroke-width="0.25" points="47.9,14.745 50.9,14.745 49.4,19 47.9,23.255 46.4,19 
		44.9,14.745 	"/>
	<rect x="11.833" y="49.717" fill="#FFFFFF" stroke="#FFFFFF" stroke-width="0.25" width="8.75" height="2.166"/>
	<rect x="74.875" y="49.717" fill="#FFFFFF" stroke="#FFFFFF" stroke-width="0.25" width="8.75" height="2.166"/>
	<rect x="46.747" y="78.125" fill="#FFFFFF" stroke="#FFFFFF" stroke-width="0.25" width="2.166" height="8.75"/>
	<g id="Layer_3_copy_2">
		<path fill="#FFFFFF" stroke="#FFFFFF" stroke-width="0.5" d="M67.5,17.134c-0.334,0.577-0.667,1.155-1,1.732"/>
	</g>
	<g id="Layer_3_copy_4">
		<path fill="#FFFFFF" stroke="#FFFFFF" stroke-width="0.5" d="M81.506,31.5c-0.578,0.333-1.154,0.667-1.732,1"/>
	</g>
	<g id="Layer_3_copy_5">
		<path fill="#FFFFFF" stroke="#FFFFFF" stroke-width="0.5" d="M86.6,50.753c-0.666-0.001-1.334,0-2,0"/>
	</g>
	<g id="Layer_3_copy_6">
		<path fill="#FFFFFF" stroke="#FFFFFF" stroke-width="0.5" d="M81.506,70.283c-0.578-0.336-1.156-0.668-1.732-1"/>
	</g>
	<g id="Layer_3_copy_7">
		<path fill="#FFFFFF" stroke="#FFFFFF" stroke-width="0.5" d="M68,84.066c-0.333-0.58-0.667-1.157-1-1.732"/>
	</g>
	<g id="Layer_3_copy">
		<path fill="#FFFFFF" stroke="#FFFFFF" stroke-width="0.5" d="M47.83,87.7c0,0.666,0,1.334,0,2"/>
	</g>
	<g id="Layer_3_copy_9">
		<path fill="#FFFFFF" stroke="#FFFFFF" stroke-width="0.5" d="M30,83.232c-0.333,0.578-0.667,1.156-1,1.73"/>
	</g>
	<g id="Layer_3_copy_8">
		<path fill="#FFFFFF" stroke="#FFFFFF" stroke-width="0.5" d="M16.27,70c-0.577,0.333-1.155,0.667-1.732,1"/>
	</g>
	<g id="Layer_3_copy_10">
		<path fill="#FFFFFF" stroke="#FFFFFF" stroke-width="0.5" d="M10.8,50.753c-0.667-0.001-1.334,0-2,0"/>
	</g>
	<g id="Layer_3_copy_11">
		<path fill="#FFFFFF" stroke="#FFFFFF" stroke-width="0.5" d="M15.566,32.5c-0.577-0.334-1.155-0.667-1.732-1"/>
	</g>
	<g id="Layer_3_copy_3">
		<path fill="#FFFFFF" stroke="#FFFFFF" stroke-width="0.5" d="M28,17.134c0.333,0.577,0.667,1.155,1,1.732"/>
	</g>
</g>
<g id="Layer_1_1_">
	<g>
		<path fill="#FFFFFF" d="M27.406,14.547c0.345,0.597,0.577,0.621,1.169,0.279l0.409-0.236c0.652-0.377,0.673-0.627,0.299-1.276
			l-0.195-0.337c-0.327-0.566-0.632-0.603-1.195-0.277l-0.317,0.183c-0.18,0.104-0.358,0.251-0.462,0.378
			c-0.047,0.055-0.103,0.148-0.125,0.217c-0.021,0.064,0,0.22-0.025,0.235l-0.368,0.212l-1.11-1.922l2.547-1.47l0.212,0.368
			l-2.118,1.223l0.628,1.136c0.033-0.067,0.038-0.134,0.081-0.221c0.036-0.072,0.084-0.135,0.144-0.203
			c0.105-0.119,0.285-0.266,0.453-0.362l0.307-0.177c0.758-0.438,1.313-0.35,1.749,0.408l0.207,0.358
			c0.515,0.892,0.405,1.375-0.489,1.892l-0.389,0.224c-0.716,0.414-1.286,0.535-1.704-0.189l-0.142-0.245l0.409-0.236L27.406,14.547
			z"/>
		<path fill="#FFFFFF" d="M24.028,16.498c0.345,0.597,0.577,0.621,1.169,0.279l0.409-0.236c0.653-0.377,0.673-0.627,0.298-1.276
			l-0.195-0.337c-0.327-0.566-0.632-0.603-1.195-0.277l-0.317,0.183c-0.18,0.104-0.358,0.251-0.462,0.378
			c-0.047,0.055-0.103,0.148-0.125,0.217c-0.021,0.064,0,0.22-0.025,0.235l-0.368,0.212l-1.109-1.922l2.546-1.47l0.212,0.368
			l-2.118,1.223l0.628,1.136c0.034-0.067,0.038-0.134,0.081-0.221c0.036-0.072,0.084-0.135,0.144-0.203
			c0.105-0.119,0.285-0.266,0.453-0.362l0.307-0.177c0.758-0.438,1.312-0.35,1.75,0.407l0.207,0.358
			c0.515,0.892,0.405,1.375-0.49,1.892l-0.389,0.224c-0.716,0.414-1.286,0.535-1.704-0.189l-0.142-0.245l0.409-0.236L24.028,16.498z
			"/>
	</g>
	<g>
		<path fill="#FFFFFF" d="M10.286,26.803c-0.151,0.262-0.308,0.645-0.224,0.841c0.096,0.22,0.468,0.397,0.715,0.581
			c0.381,0.284,1.366,0.808,1.764,0.942c0.35,0.119,0.458-0.042,0.692-0.334c0.125-0.156,0.429-0.662,0.501-0.859
			c0.122-0.333,0.234-0.532-0.028-0.765c-0.213-0.19-0.511-0.391-0.8-0.559l-0.691-0.399c-0.271-0.156-0.76-0.406-0.995-0.442
			c-0.274-0.043-0.534,0.3-0.711,0.608L10.286,26.803L10.286,26.803z M9.908,26.612l0.258-0.446c0.234-0.406,0.61-0.892,0.951-0.873
			c0.325,0.016,0.946,0.316,1.338,0.542l0.67,0.387c0.38,0.22,1.003,0.636,1.128,0.907c0.147,0.324-0.022,0.858-0.272,1.292
			l-0.223,0.386c-0.267,0.463-0.709,0.953-1.113,0.876c-0.442-0.083-1.041-0.414-1.545-0.705c-0.5-0.289-1.05-0.6-1.383-0.96
			c-0.188-0.203-0.198-0.371-0.134-0.642C9.635,27.159,9.771,26.849,9.908,26.612z"/>
		<path fill="#FFFFFF" d="M10.225,32.408c0.597,0.345,0.81,0.249,1.152-0.343l0.236-0.409c0.376-0.653,0.269-0.88-0.38-1.254
			l-0.337-0.195c-0.566-0.327-0.849-0.206-1.174,0.357L9.54,30.88c-0.104,0.18-0.184,0.396-0.211,0.558
			c-0.013,0.071-0.015,0.18,0,0.25c0.014,0.066,0.111,0.19,0.096,0.216l-0.212,0.368l-1.922-1.11l1.47-2.546l0.368,0.213
			l-1.223,2.118l1.112,0.67c-0.004-0.075-0.035-0.135-0.041-0.232c-0.005-0.08,0.006-0.16,0.023-0.248
			c0.032-0.156,0.114-0.373,0.211-0.541l0.177-0.307c0.438-0.758,0.961-0.959,1.719-0.522l0.358,0.207
			c0.892,0.515,1.039,0.989,0.522,1.883l-0.225,0.389c-0.413,0.716-0.846,1.106-1.57,0.688l-0.245-0.142l0.236-0.409L10.225,32.408z
			"/>
	</g>
	<g>
		<path fill="#FFFFFF" d="M10.244,75.509l3.283,0.431l-1.004-1.752L10.244,75.509L10.244,75.509z M12.892,73.975l1.219,2.112
			l-0.513,0.295c-0.014,0.011-1.606-0.206-1.758-0.231c-0.178-0.029-1.729-0.219-1.752-0.258l-0.379-0.656l2.564-1.479l-0.332-0.572
			l0.369-0.215l0.332,0.573l0.862-0.497l0.248,0.432L12.892,73.975z"/>
		<path fill="#FFFFFF" d="M8.685,72.771c0.155,0.269,0.416,0.604,0.635,0.631c0.245,0.029,0.594-0.213,0.886-0.338
			c0.449-0.192,1.423-0.801,1.748-1.086c0.285-0.252,0.197-0.435,0.056-0.791c-0.074-0.189-0.369-0.725-0.506-0.891
			c-0.236-0.275-0.354-0.48-0.697-0.365c-0.279,0.09-0.61,0.254-0.909,0.426l-0.711,0.41c-0.279,0.162-0.754,0.469-0.907,0.656
			c-0.18,0.225-0.007,0.635,0.176,0.948L8.685,72.771L8.685,72.771z M8.32,73.01l-0.265-0.459c-0.241-0.418-0.48-1.003-0.289-1.297
			c0.183-0.281,0.769-0.682,1.172-0.914l0.69-0.398c0.392-0.227,1.084-0.563,1.389-0.537c0.366,0.033,0.754,0.463,1.012,0.908
			l0.23,0.396c0.274,0.477,0.483,1.121,0.207,1.441c-0.302,0.351-0.904,0.716-1.423,1.016c-0.517,0.297-1.076,0.628-1.568,0.738
			c-0.277,0.064-0.433-0.014-0.641-0.211C8.666,73.534,8.461,73.254,8.32,73.01z"/>
	</g>
	<g>
		<path fill="#FFFFFF" d="M26.181,86.393c0.366-0.636,0.265-0.861-0.365-1.226l-0.436-0.251c-0.693-0.398-0.933-0.287-1.333,0.404
			l-0.207,0.357c-0.347,0.604-0.219,0.9,0.378,1.245l0.338,0.195c0.19,0.108,0.421,0.192,0.593,0.226
			c0.076,0.016,0.192,0.018,0.266,0c0.071-0.016,0.203-0.117,0.23-0.104l0.391,0.225l-1.18,2.043l-2.705-1.563l0.225-0.391
			l2.25,1.299l0.712-1.185c-0.08,0.006-0.144,0.037-0.247,0.045c-0.085,0.005-0.169-0.008-0.263-0.024
			c-0.165-0.032-0.396-0.123-0.574-0.227l-0.326-0.188c-0.806-0.467-1.021-1.021-0.555-1.826l0.219-0.383
			c0.548-0.944,1.051-1.103,2.001-0.553l0.412,0.235c0.762,0.438,1.175,0.899,0.731,1.669l-0.151,0.264l-0.434-0.252L26.181,86.393z
			"/>
		<path fill="#FFFFFF" d="M29.699,88.313c0.142-0.246,0.266-0.539,0.167-0.721c-0.072-0.136-0.445-0.389-0.642-0.503l-0.471-0.271
			c-0.538-0.313-0.839-0.317-1.151,0.225l-0.152,0.266c-0.269,0.463-0.112,0.721,0.35,0.986l0.71,0.411l-0.234,0.403l-0.448-0.258
			c-0.198-0.113-0.504-0.266-0.681-0.299c-0.201-0.037-0.384,0.117-0.511,0.34l-0.151,0.262c-0.322,0.558-0.112,0.754,0.433,1.068
			l0.45,0.26c0.725,0.42,0.86,0.252,1.272-0.461l0.438,0.252l-0.133,0.229c-0.198,0.344-0.489,0.663-0.767,0.693
			c-0.281,0.031-0.695-0.125-1.039-0.321l-0.471-0.271c-0.715-0.412-1.127-0.854-0.709-1.578l0.183-0.314
			c0.13-0.229,0.318-0.436,0.493-0.506c0.145-0.061,0.467-0.02,0.653,0.088c-0.015-0.027-0.226-0.213-0.27-0.262
			c-0.067-0.069-0.144-0.188-0.173-0.274c-0.063-0.171,0.022-0.478,0.148-0.698l0.185-0.315c0.465-0.808,1.037-0.759,1.833-0.3
			l0.46,0.269c0.408,0.233,0.787,0.53,0.922,0.847c0.128,0.299-0.094,0.776-0.325,1.18l-0.056,0.098l-0.46-0.266L29.699,88.313z"/>
	</g>
	<g>
		<path fill="#FFFFFF" d="M70.25,88.059c-0.501-0.865-0.135-1.326,0.607-1.852c0.268-0.188,0.764-0.557,0.896-0.766
			c0.158-0.248-0.135-0.742-0.334-1.086l-2.47,1.424l-0.223-0.385l2.932-1.693l0.429,0.738c0.539,0.937,0.313,1.146-0.426,1.77
			c-0.304,0.255-0.612,0.452-0.886,0.713c-0.301,0.291-0.282,0.516-0.037,0.941l0.18,0.311c0.307,0.529,0.637,0.561,1.162,0.254
			l0.396-0.229c0.521-0.303,0.834-0.567,0.524-1.098l-0.254-0.44l0.464-0.269l0.092,0.151c0.256,0.444,0.398,0.825,0.303,1.183
			c-0.076,0.277-0.524,0.65-0.891,0.86l-0.418,0.241c-0.818,0.477-1.377,0.396-1.854-0.434L70.25,88.059z"/>
		<path fill="#FFFFFF" d="M68.406,87.041c-0.365-0.635-0.612-0.659-1.243-0.296l-0.435,0.251c-0.694,0.398-0.715,0.667-0.316,1.355
			l0.206,0.355c0.349,0.604,0.673,0.643,1.271,0.295l0.336-0.191c0.192-0.11,0.383-0.271,0.491-0.401
			c0.052-0.06,0.11-0.158,0.134-0.229c0.022-0.068,0-0.236,0.026-0.25l0.39-0.227l1.18,2.042l-2.702,1.562l-0.228-0.391l2.248-1.298
			l-0.666-1.208c-0.037,0.07-0.043,0.145-0.086,0.234c-0.039,0.076-0.091,0.145-0.154,0.215c-0.109,0.127-0.303,0.283-0.479,0.387
			l-0.326,0.188C67.246,89.9,66.657,89.805,66.191,89l-0.219-0.381c-0.549-0.947-0.433-1.461,0.521-2.008l0.411-0.24
			c0.763-0.438,1.367-0.568,1.813,0.201l0.149,0.262l-0.435,0.251L68.406,87.041z"/>
	</g>
	<g>
		<path fill="#FFFFFF" d="M86.13,73.605c0.17-0.293,0.347-0.719,0.251-0.939c-0.107-0.246-0.523-0.443-0.799-0.648
			c-0.426-0.315-1.527-0.899-1.973-1.053c-0.394-0.133-0.514,0.047-0.771,0.373c-0.143,0.176-0.48,0.742-0.563,0.961
			c-0.135,0.372-0.262,0.594,0.031,0.854c0.236,0.215,0.568,0.438,0.896,0.625l0.771,0.445c0.303,0.176,0.85,0.452,1.11,0.493
			c0.308,0.05,0.599-0.336,0.796-0.68L86.13,73.605L86.13,73.605z M86.553,73.82l-0.287,0.496c-0.263,0.455-0.684,0.998-1.063,0.979
			c-0.364-0.021-1.059-0.354-1.496-0.607l-0.749-0.432c-0.429-0.246-1.122-0.713-1.261-1.015c-0.168-0.362,0.021-0.96,0.304-1.445
			l0.25-0.431c0.299-0.518,0.793-1.063,1.244-0.979c0.489,0.094,1.163,0.461,1.728,0.784c0.562,0.322,1.174,0.673,1.547,1.072
			c0.209,0.229,0.222,0.415,0.147,0.718C86.857,73.209,86.704,73.555,86.553,73.82z"/>
		<path fill="#FFFFFF" d="M86.008,71.186c-0.865-0.5-0.779-1.082-0.398-1.908c0.14-0.297,0.384-0.86,0.396-1.108
			c0.015-0.292-0.485-0.571-0.832-0.772l-1.426,2.471l-0.39-0.223l1.692-2.937l0.739,0.427c0.936,0.54,0.848,0.84,0.516,1.744
			c-0.135,0.371-0.303,0.698-0.408,1.063c-0.117,0.399,0.015,0.586,0.439,0.834l0.309,0.179c0.531,0.306,0.83,0.168,1.135-0.36
			l0.229-0.396c0.304-0.52,0.438-0.905-0.093-1.215l-0.439-0.254l0.27-0.463l0.152,0.088c0.444,0.258,0.762,0.516,0.854,0.871
			c0.074,0.279-0.128,0.828-0.337,1.192l-0.243,0.417c-0.476,0.82-0.996,1.029-1.817,0.553L86.008,71.186z"/>
	</g>
	<g>
		<path fill="#FFFFFF" d="M87.395,29.772c-0.17-0.292-0.453-0.659-0.688-0.686c-0.268-0.031-0.646,0.231-0.962,0.367
			c-0.486,0.21-1.544,0.872-1.896,1.181c-0.313,0.273-0.217,0.468-0.063,0.856c0.081,0.208,0.399,0.787,0.551,0.965
			c0.255,0.303,0.386,0.524,0.756,0.401c0.306-0.101,0.664-0.276,0.988-0.463l0.771-0.445c0.303-0.175,0.817-0.51,0.982-0.716
			c0.193-0.24,0.008-0.686-0.189-1.029L87.395,29.772L87.395,29.772z M87.79,29.514l0.288,0.499
			c0.262,0.453,0.521,1.087,0.313,1.408c-0.197,0.306-0.834,0.739-1.271,0.992l-0.748,0.433c-0.428,0.246-1.18,0.615-1.512,0.584
			c-0.396-0.038-0.816-0.5-1.098-0.986l-0.25-0.431c-0.299-0.518-0.523-1.218-0.226-1.567c0.327-0.38,0.981-0.776,1.545-1.102
			c0.562-0.323,1.168-0.682,1.702-0.803c0.302-0.068,0.47,0.016,0.695,0.229C87.412,28.945,87.637,29.25,87.79,29.514z"/>
		<path fill="#FFFFFF" d="M84.094,26.133c0.031-0.018,0.854,0.199,0.969,0.211c0.084,0.009,0.949,0.207,0.963,0.229l0.394,0.679
			L82.23,29.67l-0.274-0.475l3.815-2.203l-1.793-0.388C83.98,26.553,84.061,26.152,84.094,26.133z"/>
	</g>
	<path fill="#FFFFFF" d="M67.867,14.188c-0.385,0.665-0.277,0.903,0.383,1.284l0.456,0.263c0.728,0.42,0.979,0.3,1.397-0.423
		l0.217-0.376c0.363-0.63,0.229-0.945-0.397-1.308l-0.354-0.205c-0.198-0.115-0.439-0.205-0.618-0.235
		c-0.08-0.014-0.203-0.016-0.279,0c-0.071,0.016-0.214,0.124-0.239,0.108l-0.41-0.237l1.234-2.141l2.836,1.637l-0.234,0.41
		L69.5,11.604l-0.746,1.24c0.084-0.005,0.15-0.04,0.26-0.046c0.088-0.005,0.176,0.005,0.273,0.025
		c0.174,0.036,0.415,0.128,0.604,0.237l0.342,0.197c0.847,0.487,1.067,1.069,0.58,1.914l-0.229,0.399
		c-0.572,0.994-1.102,1.155-2.098,0.581l-0.436-0.25c-0.796-0.46-1.23-0.941-0.766-1.748l0.156-0.274l0.455,0.263L67.867,14.188z"/>
	<g>
		<polygon fill="#FFFFFF" stroke="#FFFFFF" stroke-width="0.5" points="47.83,95.385 45.33,95.385 46.58,94 47.83,92.615 49.08,94 
			50.33,95.385 		"/>
		<polygon fill="#FFFFFF" stroke="#FFFFFF" stroke-width="0.5" points="47.83,6.875 50.33,6.875 49.08,8.26 47.83,9.646 46.58,8.26 
			45.33,6.875 		"/>
		<polygon fill="#FFFFFF" stroke="#FFFFFF" stroke-width="0.5" points="91.535,50.8 91.535,53.299 90.148,52.05 88.766,50.8 
			90.148,49.55 91.535,48.3 		"/>
		<polygon fill="#FFFFFF" stroke="#FFFFFF" stroke-width="0.5" points="4.115,50.8 4.115,53.299 5.5,52.05 6.885,50.8 5.5,49.55 
			4.115,48.3 		"/>
	</g>
</g>
</svg>
