<?xml version="1.0" encoding="utf-8"?>
<!-- Generator: Adobe Illustrator 14.0.0, SVG Export Plug-In . SVG Version: 6.00 Build 43363)  -->
<!DOCTYPE svg PUBLIC "-//W3C//DTD SVG 1.1//EN" "http://www.w3.org/Graphics/SVG/1.1/DTD/svg11.dtd">
<svg version="1.1" id="Minute_Pointer" xmlns="http://www.w3.org/2000/svg" xmlns:xlink="http://www.w3.org/1999/xlink" x="0px"
	 y="0px" width="96px" height="96px" viewBox="0 0 96 96" enable-background="new 0 0 96 96" xml:space="preserve">
<linearGradient id="SVGID_1_" gradientUnits="userSpaceOnUse" x1="833.8027" y1="-1107.5449" x2="837.8027" y2="-1107.5449" gradientTransform="matrix(1 0 0 -1 -787.8008 -1065.7012)">
	<stop  offset="0.0013" style="stop-color:#0A0A0A"/>
	<stop  offset="0.4909" style="stop-color:#1E2423"/>
	<stop  offset="1" style="stop-color:#0D0D0D"/>
</linearGradient>
<path fill="url(#SVGID_1_)" stroke="#0C0C0B" stroke-width="0.5" d="M50.001,50.688V33h-4v17.557
	C47.334,50.592,48.668,50.634,50.001,50.688z"/>
<linearGradient id="SVGID_2_" gradientUnits="userSpaceOnUse" x1="834.7598" y1="-1107.2744" x2="836.7598" y2="-1107.2744" gradientTransform="matrix(1 0 0 -1 -787.8008 -1065.7012)">
	<stop  offset="0" style="stop-color:#E3E3E3"/>
	<stop  offset="0.2006" style="stop-color:#E5E5E5"/>
	<stop  offset="0.2729" style="stop-color:#ECECEC"/>
	<stop  offset="0.3242" style="stop-color:#F7F7F7"/>
	<stop  offset="0.3455" style="stop-color:#FFFFFF"/>
	<stop  offset="0.4794" style="stop-color:#F6F6F6"/>
	<stop  offset="0.7372" style="stop-color:#EAEBEC"/>
	<stop  offset="1" style="stop-color:#E6E7E8"/>
</linearGradient>
<path fill="url(#SVGID_2_)" stroke="#000000" stroke-width="0.25" d="M48.958,50.646v-17.65c0-0.274-0.446-0.496-1-0.496
	c-0.552,0-1,0.222-1,0.496v17.581C47.625,50.6,48.292,50.621,48.958,50.646z"/>
<g>
	<linearGradient id="SVGID_3_" gradientUnits="userSpaceOnUse" x1="46.999" y1="23.9995" x2="48.999" y2="23.9995">
		<stop  offset="0.0013" style="stop-color:#0A0A0A"/>
		<stop  offset="0.4909" style="stop-color:#1E2423"/>
		<stop  offset="1" style="stop-color:#0D0D0D"/>
	</linearGradient>
	<path fill="url(#SVGID_3_)" stroke="#070707" stroke-width="0.5" d="M48.173,26.512c0.293,0,0.552,0.036,0.826,0.06L48,21.403
		l-1.001,5.193C47.372,26.55,47.755,26.512,48.173,26.512z"/>
	
		<linearGradient id="SVGID_4_" gradientUnits="userSpaceOnUse" x1="835.3174" y1="-1089.7007" x2="836.2822" y2="-1089.7007" gradientTransform="matrix(1 0 0 -1 -787.8008 -1065.7012)">
		<stop  offset="0.0013" style="stop-color:#0A0A0A"/>
		<stop  offset="0.4909" style="stop-color:#1E2423"/>
		<stop  offset="1" style="stop-color:#0D0D0D"/>
	</linearGradient>
	<path fill="url(#SVGID_4_)" d="M48.083,25.212c0.142,0,0.266,0.017,0.398,0.028L48,22.747l-0.484,2.505
		C47.696,25.23,47.882,25.212,48.083,25.212z"/>
</g>
<g>
	
		<linearGradient id="SVGID_5_" gradientUnits="userSpaceOnUse" x1="830.8008" y1="-1096.7012" x2="840.8008" y2="-1096.7012" gradientTransform="matrix(1 0 0 -1 -787.8008 -1065.7012)">
		<stop  offset="0" style="stop-color:#E3E3E3"/>
		<stop  offset="0.2006" style="stop-color:#E5E5E5"/>
		<stop  offset="0.2729" style="stop-color:#ECECEC"/>
		<stop  offset="0.3242" style="stop-color:#F7F7F7"/>
		<stop  offset="0.3455" style="stop-color:#FFFFFF"/>
		<stop  offset="0.4794" style="stop-color:#F6F6F6"/>
		<stop  offset="0.7372" style="stop-color:#EAEBEC"/>
		<stop  offset="1" style="stop-color:#E6E7E8"/>
	</linearGradient>
	<circle fill="url(#SVGID_5_)" stroke="#020202" stroke-width="0.5" cx="48" cy="31" r="5"/>
	
		<linearGradient id="SVGID_6_" gradientUnits="userSpaceOnUse" x1="831.3008" y1="-1096.7012" x2="840.3008" y2="-1096.7012" gradientTransform="matrix(1 0 0 -1 -787.8008 -1065.7012)">
		<stop  offset="0" style="stop-color:#E3E3E3"/>
		<stop  offset="0.2006" style="stop-color:#E5E5E5"/>
		<stop  offset="0.2729" style="stop-color:#ECECEC"/>
		<stop  offset="0.3242" style="stop-color:#F7F7F7"/>
		<stop  offset="0.3455" style="stop-color:#FFFFFF"/>
		<stop  offset="0.4794" style="stop-color:#F6F6F6"/>
		<stop  offset="0.7372" style="stop-color:#EAEBEC"/>
		<stop  offset="1" style="stop-color:#E6E7E8"/>
	</linearGradient>
	<circle fill="url(#SVGID_6_)" cx="48" cy="31" r="4.5"/>
	<line fill="none" stroke="#000000" x1="48" y1="30.502" x2="48" y2="36"/>
	<line fill="none" stroke="#000000" x1="44.367" y1="27.701" x2="47.9" y2="31.234"/>
	<line fill="none" stroke="#000000" x1="51.667" y1="27.701" x2="48.133" y2="31.234"/>
</g>
</svg>
