<?xml version="1.0" encoding="utf-8"?>
<!-- Generator: Adobe Illustrator 14.0.0, SVG Export Plug-In . SVG Version: 6.00 Build 43363)  -->
<!DOCTYPE svg PUBLIC "-//W3C//DTD SVG 1.1//EN" "http://www.w3.org/Graphics/SVG/1.1/DTD/svg11.dtd">
<svg version="1.1" id="Minute_Pointer" xmlns="http://www.w3.org/2000/svg" xmlns:xlink="http://www.w3.org/1999/xlink" x="0px"
	 y="0px" width="96px" height="96px" viewBox="0 0 96 96" enable-background="new 0 0 96 96" xml:space="preserve">
<linearGradient id="SVGID_1_" gradientUnits="userSpaceOnUse" x1="46.001" y1="41.8438" x2="50.001" y2="41.8438">
	<stop  offset="0" style="stop-color:#FFFFFF"/>
	<stop  offset="0.3758" style="stop-color:#000000"/>
	<stop  offset="1" style="stop-color:#ECECEC"/>
</linearGradient>
<path fill="url(#SVGID_1_)" stroke="#9B9B9B" stroke-width="0.5" d="M50.001,50.688V33h-4v17.557
	C47.334,50.592,48.668,50.634,50.001,50.688z"/>
<linearGradient id="SVGID_2_" gradientUnits="userSpaceOnUse" x1="46.958" y1="41.5737" x2="48.958" y2="41.5737">
	<stop  offset="0" style="stop-color:#58595B"/>
	<stop  offset="0.4242" style="stop-color:#FFFFFF"/>
	<stop  offset="0.6061" style="stop-color:#F1F0F0"/>
	<stop  offset="1" style="stop-color:#58595B"/>
</linearGradient>
<path fill="url(#SVGID_2_)" stroke="#000000" stroke-width="0.25" d="M48.958,50.647V32.996c0-0.274-0.446-0.496-1-0.496
	c-0.552,0-1,0.222-1,0.496v17.581C47.625,50.599,48.292,50.621,48.958,50.647z"/>
<g>
	<path fill="#050505" stroke="#9B9B9B" stroke-width="0.5" d="M48.173,26.512c0.293,0,0.552,0.036,0.826,0.06L48,21.403
		l-1.001,5.193C47.372,26.55,47.755,26.512,48.173,26.512z"/>
	<linearGradient id="SVGID_3_" gradientUnits="userSpaceOnUse" x1="47.5161" y1="23.9995" x2="48.481" y2="23.9995">
		<stop  offset="0" style="stop-color:#58595B"/>
		<stop  offset="0.4242" style="stop-color:#FFFFFF"/>
		<stop  offset="0.6061" style="stop-color:#F1F0F0"/>
		<stop  offset="1" style="stop-color:#58595B"/>
	</linearGradient>
	<path fill="url(#SVGID_3_)" d="M48.083,25.212c0.142,0,0.266,0.017,0.398,0.028L48,22.747l-0.484,2.505
		C47.696,25.23,47.882,25.212,48.083,25.212z"/>
</g>
<g>
	<linearGradient id="SVGID_4_" gradientUnits="userSpaceOnUse" x1="43" y1="31" x2="53" y2="31">
		<stop  offset="0" style="stop-color:#58595B"/>
		<stop  offset="0.4242" style="stop-color:#FFFFFF"/>
		<stop  offset="0.6061" style="stop-color:#F1F0F0"/>
		<stop  offset="1" style="stop-color:#58595B"/>
	</linearGradient>
	<circle fill="url(#SVGID_4_)" stroke="#9B9B9B" stroke-width="0.5" cx="48" cy="31" r="5"/>
	<linearGradient id="SVGID_5_" gradientUnits="userSpaceOnUse" x1="43.5" y1="31" x2="52.5" y2="31">
		<stop  offset="0" style="stop-color:#58595B"/>
		<stop  offset="0.4242" style="stop-color:#FFFFFF"/>
		<stop  offset="0.6061" style="stop-color:#F1F0F0"/>
		<stop  offset="1" style="stop-color:#58595B"/>
	</linearGradient>
	<circle fill="url(#SVGID_5_)" stroke="#000000" stroke-width="0.5" cx="48" cy="31" r="4.5"/>
	<linearGradient id="SVGID_6_" gradientUnits="userSpaceOnUse" x1="48" y1="33" x2="48" y2="33">
		<stop  offset="0" style="stop-color:#58595B"/>
		<stop  offset="0.4242" style="stop-color:#FFFFFF"/>
		<stop  offset="0.6061" style="stop-color:#F1F0F0"/>
		<stop  offset="1" style="stop-color:#58595B"/>
	</linearGradient>
	<line fill="url(#SVGID_6_)" stroke="#000000" x1="48" y1="30.502" x2="48" y2="35.498"/>
	<line fill="none" stroke="#000000" x1="44.367" y1="27.701" x2="47.9" y2="31.234"/>
	<line fill="none" stroke="#000000" x1="51.667" y1="27.701" x2="48.133" y2="31.234"/>
</g>
</svg>
