<?xml version="1.0" encoding="utf-8"?>
<!-- Generator: Adobe Illustrator 14.0.0, SVG Export Plug-In . SVG Version: 6.00 Build 43363)  -->
<!DOCTYPE svg PUBLIC "-//W3C//DTD SVG 1.1//EN" "http://www.w3.org/Graphics/SVG/1.1/DTD/svg11.dtd">
<svg version="1.1" id="Minute_Pointer" xmlns="http://www.w3.org/2000/svg" xmlns:xlink="http://www.w3.org/1999/xlink" x="0px"
	 y="0px" width="96px" height="96px" viewBox="0 0 96 96" enable-background="new 0 0 96 96" xml:space="preserve">
<linearGradient id="SVGID_1_" gradientUnits="userSpaceOnUse" x1="46.001" y1="35.415" x2="50.001" y2="35.415">
	<stop  offset="0" style="stop-color:#FFFFFF"/>
	<stop  offset="0.3879" style="stop-color:#58595B"/>
	<stop  offset="1" style="stop-color:#E8E8E8"/>
</linearGradient>
<path fill="url(#SVGID_1_)" stroke="#9B9B9B" stroke-width="0.5" d="M50.001,51.121V19.709h-4v31.409
	C47.339,51.116,48.669,51.119,50.001,51.121z"/>
<linearGradient id="SVGID_2_" gradientUnits="userSpaceOnUse" x1="45.999" y1="14" x2="49.999" y2="14">
	<stop  offset="0" style="stop-color:#58595B"/>
	<stop  offset="0.4242" style="stop-color:#FFFFFF"/>
	<stop  offset="0.6061" style="stop-color:#F1F0F0"/>
	<stop  offset="1" style="stop-color:#58595B"/>
</linearGradient>
<polygon fill="url(#SVGID_2_)" stroke="#9B9B9B" stroke-width="0.5" points="48,19.358 45.999,19.358 47,13.998 48,8.642 49,13.998 
	49.999,19.358 "/>
<linearGradient id="SVGID_3_" gradientUnits="userSpaceOnUse" x1="46.957" y1="34" x2="48.957" y2="34">
	<stop  offset="0" style="stop-color:#58595B"/>
	<stop  offset="0.4242" style="stop-color:#FFFFFF"/>
	<stop  offset="0.6061" style="stop-color:#F1F0F0"/>
	<stop  offset="1" style="stop-color:#58595B"/>
</linearGradient>
<path fill="url(#SVGID_3_)" stroke="#000000" stroke-width="0.25" d="M48.957,47.269c0,0.404-0.445,0.731-0.999,0.731l0,0
	c-0.552,0-1.001-0.327-1.001-0.731V20.731c0-0.403,0.448-0.731,1.001-0.731l0,0c0.554,0,0.999,0.327,0.999,0.731V47.269z"/>
<linearGradient id="SVGID_4_" gradientUnits="userSpaceOnUse" x1="1699.6982" y1="4247.8047" x2="1706.6982" y2="4247.8047" gradientTransform="matrix(1 0 0 1 -1655.1982 -4198.8047)">
	<stop  offset="0" style="stop-color:#58595B"/>
	<stop  offset="0.4242" style="stop-color:#FFFFFF"/>
	<stop  offset="0.6061" style="stop-color:#F1F0F0"/>
	<stop  offset="1" style="stop-color:#58595B"/>
</linearGradient>
<circle fill="url(#SVGID_4_)" stroke="#9B9B9B" stroke-width="0.25" cx="48" cy="49" r="3.5"/>
<radialGradient id="SVGID_5_" cx="48" cy="49" r="2" gradientUnits="userSpaceOnUse">
	<stop  offset="0" style="stop-color:#FFFFFF"/>
	<stop  offset="1" style="stop-color:#58595B"/>
</radialGradient>
<circle fill="url(#SVGID_5_)" stroke="#000000" stroke-width="0.25" cx="48" cy="49" r="2"/>
</svg>
